<svg width="160" height="62" viewBox="0 0 160 62" fill="none" xmlns="http://www.w3.org/2000/svg">
<path fill-rule="evenodd" clip-rule="evenodd" d="M38 58C49.0457 58 58 49.0457 58 38C58 26.9543 49.0457 18 38 18C26.9543 18 18 26.9543 18 38C18 49.0457 26.9543 58 38 58ZM38 52C45.732 52 52 45.732 52 38C52 30.268 45.732 24 38 24C30.268 24 24 30.268 24 38C24 45.732 30.268 52 38 52Z" fill="#6D0DB8"/>
<path fill-rule="evenodd" clip-rule="evenodd" d="M51.9986 38.2007C51.8913 45.8402 45.665 52.0001 38 52.0001C34.0833 52.0001 30.5423 50.3917 28.0014 47.7995C28.0005 47.8662 28 47.9331 28 48.0001C28 55.7321 34.268 62.0001 42 62.0001C49.732 62.0001 56 55.7321 56 48.0001C56 44.1847 54.4738 40.7259 51.9986 38.2007Z" fill="#0968F0" style="mix-blend-mode:hard-light"/>
<path fill-rule="evenodd" clip-rule="evenodd" d="M52 48C60.8366 48 68 40.8366 68 32C68 23.1634 60.8366 16 52 16C46.0775 16 40.9065 19.2179 38.1401 24.0007C45.8076 24.0759 52 30.3148 52 38C52 41.6932 50.5699 45.0524 48.2333 47.5541C49.4412 47.8456 50.7026 48 52 48Z" fill="#FFD839" style="mix-blend-mode:hard-light"/>
<path fill-rule="evenodd" clip-rule="evenodd" d="M44.912 25.8224C42.8728 24.6625 40.5137 24 38 24C30.268 24 24 30.268 24 38C24 42.975 26.595 47.3439 30.5053 49.827C29.6865 49.9411 28.8501 50 28 50C18.0589 50 10 41.9411 10 32C10 22.0589 18.0589 14 28 14C35.7708 14 42.3915 18.9242 44.912 25.8224Z" fill="#D33B3B" style="mix-blend-mode:hard-light"/>
<mask id="mask0_1090_811" style="mask-type:alpha" maskUnits="userSpaceOnUse" x="26" y="26" width="24" height="24">
<circle cx="38" cy="38" r="11" stroke="black" stroke-width="2"/>
</mask>
<g mask="url(#mask0_1090_811)">
<circle cx="38.0001" cy="38.0001" r="18.4615" fill="#6D0DB8"/>
<circle cx="41.6924" cy="47.2307" r="12.9231" fill="#0968F0" style="mix-blend-mode:hard-light"/>
<circle cx="50.923" cy="32.4616" r="14.7692" fill="#FFD839" style="mix-blend-mode:hard-light"/>
<circle cx="28.7692" cy="32.4616" r="16.6154" fill="#BC3838" style="mix-blend-mode:hard-light"/>
</g>
<mask id="mask1_1090_811" style="mask-type:alpha" maskUnits="userSpaceOnUse" x="30" y="30" width="16" height="16">
<path d="M31.72 42.6742L31.7067 42.6876C31.5267 42.2942 31.4134 41.8476 31.3667 41.3542C31.4134 41.8409 31.54 42.2809 31.72 42.6742ZM36.0007 36.9209C36.4215 36.9209 36.8251 36.7537 37.1226 36.4562C37.4202 36.1586 37.5874 35.755 37.5874 35.3342C37.5874 34.9134 37.4202 34.5098 37.1226 34.2123C36.8251 33.9147 36.4215 33.7476 36.0007 33.7476C35.5799 33.7476 35.1763 33.9147 34.8788 34.2123C34.5812 34.5098 34.414 34.9134 34.414 35.3342C34.414 35.755 34.5812 36.1586 34.8788 36.4562C35.1763 36.7537 35.5799 36.9209 36.0007 36.9209Z" fill="white"/>
<path d="M40.7933 31.3335H35.2066C32.7799 31.3335 31.3333 32.7802 31.3333 35.2068V40.7935C31.3333 41.5202 31.4599 42.1535 31.7066 42.6868C32.2799 43.9535 33.5066 44.6668 35.2066 44.6668H40.7933C43.2199 44.6668 44.6666 43.2202 44.6666 40.7935V35.2068C44.6666 32.7802 43.2199 31.3335 40.7933 31.3335ZM43.5799 38.3335C43.0599 37.8868 42.2199 37.8868 41.6999 38.3335L38.9266 40.7135C38.4066 41.1602 37.5666 41.1602 37.0466 40.7135L36.8199 40.5268C36.3466 40.1135 35.5933 40.0735 35.0599 40.4335L32.5666 42.1068C32.4199 41.7335 32.3333 41.3002 32.3333 40.7935V35.2068C32.3333 33.3268 33.3266 32.3335 35.2066 32.3335H40.7933C42.6733 32.3335 43.6666 33.3268 43.6666 35.2068V38.4068L43.5799 38.3335Z" fill="white"/>
</mask>
<g mask="url(#mask1_1090_811)">
<circle cx="38" cy="38" r="20" fill="#6D0DB8"/>
<circle cx="42" cy="48" r="14" fill="#0968F0" style="mix-blend-mode:hard-light"/>
<circle cx="52" cy="32" r="16" fill="#FFD839" style="mix-blend-mode:hard-light"/>
<circle cx="28" cy="32" r="18" fill="#BC3838" style="mix-blend-mode:hard-light"/>
</g>
<circle cx="75" cy="34" r="3" fill="#E24F4F"/>
<circle cx="1.5" cy="30.5" r="1.5" fill="#0968F0"/>
<circle cx="72.5" cy="40.5" r="1.5" fill="#CD0655"/>
<circle cx="18.5" cy="56.5" r="2.5" fill="#FFE54C"/>
<circle cx="43.5" cy="3.5" r="3.5" fill="#6D0DB8"/>
<path d="M101.406 25.3047C101.375 25.5234 101.336 25.6328 101.289 25.6328C101.242 25.6328 101.203 25.6484 101.172 25.6797C101.125 25.7578 101.07 25.8203 101.008 25.8672C100.945 25.8984 100.883 25.9531 100.82 26.0312L100.586 26.2188C100.477 26.3125 100.375 26.4141 100.281 26.5234C100.203 26.6328 100.102 26.7266 99.9766 26.8047C99.9453 26.8828 99.9062 26.9453 99.8594 26.9922C99.8281 27.0391 99.7891 27.0859 99.7422 27.1328C99.7578 27.3203 99.75 27.4453 99.7188 27.5078C99.7031 27.5547 99.6953 27.5938 99.6953 27.625C99.6953 27.6875 99.7109 27.7969 99.7422 27.9531C99.7422 28.0625 99.75 28.1719 99.7656 28.2812C99.7969 28.375 99.8203 28.4844 99.8359 28.6094C99.8672 28.7031 99.8828 28.8047 99.8828 28.9141C99.8984 29.0078 99.9219 29.0938 99.9531 29.1719C100.047 29.3906 100.102 29.5391 100.117 29.6172C100.133 29.6797 100.156 29.75 100.188 29.8281L100.281 30.1328C100.281 30.2578 100.289 30.3438 100.305 30.3906C100.32 30.4219 100.336 30.4531 100.352 30.4844C100.383 30.6094 100.414 30.7344 100.445 30.8594C100.492 30.9844 100.555 31.0938 100.633 31.1875C100.664 31.3281 100.695 31.4688 100.727 31.6094C100.773 31.75 100.828 31.8828 100.891 32.0078C100.906 32.2109 100.922 32.3594 100.938 32.4531C100.969 32.5469 101 32.6328 101.031 32.7109C101.062 32.8047 101.086 32.8906 101.102 32.9688C101.133 33.0469 101.172 33.125 101.219 33.2031C101.266 33.375 101.328 33.5391 101.406 33.6953C101.438 33.8047 101.469 33.8828 101.5 33.9297C101.531 33.9609 101.555 34 101.57 34.0469L101.688 34.3984C101.719 34.4922 101.75 34.5859 101.781 34.6797C101.812 34.7578 101.844 34.8438 101.875 34.9375C101.969 35.0781 102.016 35.1797 102.016 35.2422C102.031 35.3047 102.055 35.3594 102.086 35.4062C102.117 35.5156 102.156 35.6094 102.203 35.6875C102.25 35.7656 102.297 35.8672 102.344 35.9922C102.391 36.1328 102.438 36.2734 102.484 36.4141C102.531 36.5547 102.586 36.6953 102.648 36.8359C102.711 36.9609 102.766 37.0781 102.812 37.1875C102.844 37.2344 102.859 37.2891 102.859 37.3516C102.859 37.3984 102.875 37.4375 102.906 37.4688C102.969 37.6406 103.016 37.7734 103.047 37.8672C103.094 37.9453 103.133 38.0312 103.164 38.125C103.227 38.2656 103.266 38.3828 103.281 38.4766C103.297 38.5547 103.32 38.625 103.352 38.6875C103.398 38.7656 103.438 38.8438 103.469 38.9219L103.586 39.1562C103.664 39.2812 103.703 39.375 103.703 39.4375C103.703 39.4844 103.719 39.5391 103.75 39.6016C103.828 39.7109 103.867 39.7891 103.867 39.8359C103.867 39.8828 103.875 39.9297 103.891 39.9766C103.922 40.0391 103.953 40.0938 103.984 40.1406C104.016 40.1875 104.047 40.2422 104.078 40.3047C104.172 40.4922 104.242 40.6172 104.289 40.6797C104.336 40.7422 104.375 40.8047 104.406 40.8672C104.547 41.0859 104.664 41.2344 104.758 41.3125C104.883 41.375 104.977 41.4453 105.039 41.5234C105.102 41.5859 105.172 41.6406 105.25 41.6875C105.375 41.7656 105.453 41.8281 105.484 41.875C105.688 41.9844 105.82 42.0547 105.883 42.0859C105.992 42.1953 106.062 42.25 106.094 42.25C106.125 42.25 106.156 42.2578 106.188 42.2734C106.266 42.3047 106.352 42.3438 106.445 42.3906C106.555 42.4219 106.648 42.4531 106.727 42.4844C106.805 42.5156 106.867 42.5391 106.914 42.5547C106.977 42.5703 107.047 42.5859 107.125 42.6016C107.188 42.6172 107.25 42.625 107.312 42.625C107.391 42.6094 107.461 42.6328 107.523 42.6953C107.383 42.7734 107.312 42.8203 107.312 42.8359C107.312 42.8516 107.297 42.8594 107.266 42.8594C107.219 42.8594 107.164 42.8516 107.102 42.8359C107.039 42.8203 106.969 42.8125 106.891 42.8125C106.75 42.7969 106.594 42.8047 106.422 42.8359C106.266 42.8672 106.102 42.8906 105.93 42.9062C105.82 42.9219 105.703 42.9297 105.578 42.9297C105.469 42.9297 105.352 42.9375 105.227 42.9531C104.992 42.9531 104.82 42.9609 104.711 42.9766C104.617 42.9922 104.508 43 104.383 43C104.32 43 104.266 43.0078 104.219 43.0234C104.188 43.0391 104.156 43.0547 104.125 43.0703C103.953 43.0859 103.781 43.0859 103.609 43.0703C103.438 43.0703 103.273 43.0781 103.117 43.0938C103.023 43.0938 102.93 43.1016 102.836 43.1172C102.742 43.1328 102.648 43.1406 102.555 43.1406C102.336 43.1562 102.125 43.1641 101.922 43.1641C101.719 43.1797 101.516 43.1953 101.312 43.2109C101.219 43.2109 101.125 43.2031 101.031 43.1875C100.938 43.1875 100.844 43.1953 100.75 43.2109C100.594 43.2266 100.445 43.2422 100.305 43.2578C100.164 43.2891 100.023 43.2969 99.8828 43.2812C99.8047 43.2812 99.7344 43.2734 99.6719 43.2578C99.625 43.2422 99.5625 43.2344 99.4844 43.2344C99.4375 43.2344 99.3906 43.2344 99.3438 43.2344C99.2969 43.25 99.25 43.2578 99.2031 43.2578C98.9844 43.2422 98.7969 43.2422 98.6406 43.2578C98.5 43.2891 98.3672 43.2969 98.2422 43.2812C98.0078 43.2812 97.8125 43.2344 97.6562 43.1406C97.7344 42.9531 97.7969 42.8516 97.8438 42.8359C97.8906 42.8203 97.9453 42.7969 98.0078 42.7656C98.1172 42.7188 98.2266 42.6719 98.3359 42.625C98.4609 42.5781 98.5859 42.5234 98.7109 42.4609C98.7891 42.4453 98.9062 42.4062 99.0625 42.3438C99.25 42.2344 99.4062 42.1641 99.5312 42.1328C99.6094 42.1016 99.6797 42.0625 99.7422 42.0156C99.8203 41.9688 99.8984 41.9297 99.9766 41.8984C100.023 41.8672 100.07 41.8516 100.117 41.8516C100.164 41.8516 100.203 41.8359 100.234 41.8047C100.406 41.6953 100.5 41.6484 100.516 41.6641C100.547 41.6641 100.578 41.6562 100.609 41.6406C100.719 41.5781 100.781 41.5312 100.797 41.5C100.828 41.4531 100.859 41.4141 100.891 41.3828C100.969 41.3828 101.023 41.3672 101.055 41.3359C101.102 41.2891 101.141 41.25 101.172 41.2188C101.297 41.125 101.383 41.0547 101.43 41.0078C101.445 40.9141 101.469 40.8203 101.5 40.7266C101.531 40.6172 101.539 40.5 101.523 40.375C101.43 40.2188 101.383 40.1328 101.383 40.1172C101.398 40.1016 101.398 40.0781 101.383 40.0469C101.32 39.9375 101.289 39.8516 101.289 39.7891C101.289 39.7109 101.281 39.6328 101.266 39.5547C101.219 39.3672 101.195 39.2578 101.195 39.2266C101.195 39.1797 101.188 39.1406 101.172 39.1094C101.141 39.0312 101.102 38.9531 101.055 38.875C101.023 38.7812 100.992 38.6953 100.961 38.6172C100.914 38.4297 100.875 38.3047 100.844 38.2422C100.828 38.1641 100.805 38.0859 100.773 38.0078C100.664 37.8984 100.555 37.8359 100.445 37.8203C100.352 37.8047 100.25 37.7812 100.141 37.75C99.9531 37.7031 99.8203 37.6797 99.7422 37.6797C99.6641 37.6797 99.5781 37.6797 99.4844 37.6797C99.375 37.6641 99.2656 37.6484 99.1562 37.6328C99.0625 37.6016 98.9609 37.5859 98.8516 37.5859C98.8203 37.5859 98.7734 37.5938 98.7109 37.6094C98.6484 37.6094 98.5859 37.6094 98.5234 37.6094C98.2578 37.625 98.0078 37.6406 97.7734 37.6562C97.5547 37.6562 97.2891 37.6562 96.9766 37.6562H96.7188C96.625 37.6406 96.5234 37.6406 96.4141 37.6562C96.2422 37.6719 96.1328 37.6719 96.0859 37.6562C96.0391 37.6406 95.9922 37.625 95.9453 37.6094C95.6797 37.5781 95.4219 37.5781 95.1719 37.6094L94.8906 37.6797C94.7656 37.6953 94.6406 37.7031 94.5156 37.7031C94.4062 37.7031 94.2969 37.7031 94.1875 37.7031C94.0625 37.7031 93.9531 37.6953 93.8594 37.6797C93.7656 37.6641 93.6641 37.6641 93.5547 37.6797C93.4297 37.6953 93.3047 37.7188 93.1797 37.75C93.0547 37.7656 92.9453 37.7812 92.8516 37.7969C92.8203 37.9375 92.7734 38.0938 92.7109 38.2656C92.6641 38.4219 92.6328 38.5938 92.6172 38.7812C92.6172 38.8281 92.6172 38.875 92.6172 38.9219C92.6328 38.9688 92.6406 39.0234 92.6406 39.0859C92.6406 39.1641 92.625 39.2344 92.5938 39.2969C92.5781 39.3438 92.5859 39.4062 92.6172 39.4844C92.6328 39.625 92.6719 39.7656 92.7344 39.9062C92.6875 40.1094 92.6641 40.25 92.6641 40.3281C92.6797 40.4062 92.6875 40.4844 92.6875 40.5625C92.6719 40.6875 92.6562 40.8203 92.6406 40.9609C92.6406 41.0859 92.6719 41.2031 92.7344 41.3125C92.7656 41.375 92.8125 41.4531 92.875 41.5469C92.9375 41.625 93.0078 41.6953 93.0859 41.7578C93.1641 41.8203 93.2656 41.875 93.3906 41.9219C93.5156 41.9688 93.625 42.0234 93.7188 42.0859C93.8281 42.1797 93.8984 42.2344 93.9297 42.25C93.9766 42.25 94.0234 42.2656 94.0703 42.2969C94.1797 42.3438 94.3047 42.4062 94.4453 42.4844C94.5859 42.5625 94.7109 42.6406 94.8203 42.7188C94.8672 42.75 94.9219 42.7734 94.9844 42.7891C95.0469 42.7891 95.0703 42.8281 95.0547 42.9062C94.8984 43 94.7891 43.0391 94.7266 43.0234C94.6797 43.0078 94.625 43 94.5625 43C94.4844 43.0156 94.4062 43.0234 94.3281 43.0234C94.2656 43.0234 94.1953 43.0391 94.1172 43.0703C94.0547 43.0703 93.9922 43.0781 93.9297 43.0938C93.8828 43.125 93.8203 43.1406 93.7422 43.1406C93.3672 43.125 93.0391 43.125 92.7578 43.1406C92.4766 43.1719 92.2031 43.1953 91.9375 43.2109C91.7812 43.2109 91.625 43.2031 91.4688 43.1875C91.3125 43.1719 91.1562 43.1562 91 43.1406C90.8281 43.125 90.6641 43.125 90.5078 43.1406C90.3516 43.1719 90.1953 43.1797 90.0391 43.1641C89.9766 43.1641 89.9141 43.1562 89.8516 43.1406C89.8047 43.125 89.7422 43.1172 89.6641 43.1172C89.6016 43.1172 89.5391 43.125 89.4766 43.1406C89.4297 43.1562 89.375 43.1641 89.3125 43.1641C89.1406 43.1641 89.0547 43.1562 89.0547 43.1406C89.0547 43.1406 89.0469 43.1406 89.0312 43.1406C88.9531 43.1562 88.875 43.1719 88.7969 43.1875C88.7344 43.2031 88.6641 43.2109 88.5859 43.2109C88.4609 43.2109 88.3438 43.1953 88.2344 43.1641C88.1406 43.1484 88.0469 43.1406 87.9531 43.1406C87.875 43.1406 87.7969 43.1406 87.7188 43.1406C87.6406 43.1562 87.5625 43.1641 87.4844 43.1641C87.4375 43.1797 87.375 43.1953 87.2969 43.2109C87.2031 43.2266 87.1172 43.2344 87.0391 43.2344C86.8516 43.0938 86.7969 43.0156 86.875 43C86.9375 43 86.9844 42.9844 87.0156 42.9531C87.2031 42.8281 87.3047 42.7578 87.3203 42.7422C87.4922 42.6328 87.5859 42.5703 87.6016 42.5547C87.7422 42.4141 87.875 42.3203 88 42.2734C88.1094 42.2266 88.2031 42.1875 88.2812 42.1562C88.4531 42.0625 88.5625 42.0078 88.6094 41.9922C88.6562 41.9609 88.7109 41.9297 88.7734 41.8984C88.8203 41.8672 88.8672 41.8438 88.9141 41.8281C88.9766 41.8125 89.0312 41.7891 89.0781 41.7578C89.1719 41.6953 89.25 41.625 89.3125 41.5469C89.375 41.4688 89.4609 41.3984 89.5703 41.3359C89.6016 41.2109 89.6484 41.1094 89.7109 41.0312C89.7734 40.9531 89.8359 40.875 89.8984 40.7969C89.9766 40.6719 90.0078 40.6094 89.9922 40.6094C89.9922 40.5938 90 40.5781 90.0156 40.5625C90.0469 40.5312 90.0781 40.4766 90.1094 40.3984C90.1562 40.3203 90.1719 40.2422 90.1562 40.1641C90.2969 39.9609 90.3984 39.8047 90.4609 39.6953C90.5234 39.5703 90.5703 39.4453 90.6016 39.3203C90.6328 39.1328 90.6562 39.0312 90.6719 39.0156C90.6875 39 90.7031 38.9766 90.7188 38.9453C90.7812 38.7891 90.8359 38.6172 90.8828 38.4297C90.9297 38.2266 90.9922 38.0391 91.0703 37.8672C91.1016 37.7891 91.125 37.7109 91.1406 37.6328C91.1719 37.5547 91.2031 37.4531 91.2344 37.3281C91.2812 37.1406 91.3203 37.0312 91.3516 37C91.3828 36.9531 91.4062 36.8984 91.4219 36.8359C91.4531 36.7734 91.4609 36.7188 91.4453 36.6719C91.4297 36.6094 91.4375 36.5469 91.4688 36.4844L91.6328 36.2031C91.6641 36.1562 91.6875 36.1172 91.7031 36.0859C91.7344 36.0391 91.7656 35.9922 91.7969 35.9453C91.8281 35.8672 91.8516 35.7969 91.8672 35.7344C91.8828 35.6719 91.9062 35.6016 91.9375 35.5234C92.0469 35.3359 92.1094 35.2109 92.125 35.1484C92.1406 35.0859 92.1641 35.0156 92.1953 34.9375C92.2266 34.8594 92.2578 34.7734 92.2891 34.6797C92.3203 34.5859 92.3281 34.4766 92.3125 34.3516C92.3906 34.2734 92.4453 34.1641 92.4766 34.0234C92.5234 33.8828 92.5781 33.75 92.6406 33.625C92.6719 33.5781 92.6953 33.5469 92.7109 33.5312C92.7422 33.5 92.7578 33.4453 92.7578 33.3672C92.7734 33.2891 92.7734 33.2188 92.7578 33.1562C92.7422 33.0938 92.7188 33.0234 92.6875 32.9453C92.7188 32.8672 92.7422 32.7969 92.7578 32.7344C92.7891 32.6719 92.8125 32.6016 92.8281 32.5234C92.8906 32.4141 92.9297 32.3359 92.9453 32.2891C92.9766 32.2422 93.0078 32.1953 93.0391 32.1484C93.0859 32.0391 93.1484 31.9141 93.2266 31.7734C93.2578 31.7109 93.2812 31.6484 93.2969 31.5859C93.3281 31.5078 93.3594 31.4297 93.3906 31.3516C93.4844 31.1953 93.5312 31.1016 93.5312 31.0703C93.5312 31.0234 93.5391 30.9844 93.5547 30.9531C93.6172 30.8281 93.6797 30.7031 93.7422 30.5781C93.8047 30.4531 93.8672 30.3281 93.9297 30.2031C93.9609 30.125 93.9844 30.0547 94 29.9922C94.0156 29.9297 94.0391 29.8672 94.0703 29.8047C94.1016 29.7266 94.1328 29.6641 94.1641 29.6172C94.1953 29.5547 94.2188 29.4844 94.2344 29.4062C94.2656 29.3438 94.2734 29.2891 94.2578 29.2422C94.2578 29.1797 94.2734 29.1172 94.3047 29.0547C94.3047 29.0234 94.3125 28.9844 94.3281 28.9375C94.3438 28.8906 94.3594 28.8438 94.375 28.7969C94.5469 28.4844 94.6641 28.2656 94.7266 28.1406C94.8047 28 94.8906 27.8359 94.9844 27.6484C95.0156 27.5547 95.0469 27.4609 95.0781 27.3672C95.125 27.2578 95.1406 27.1719 95.125 27.1094C95.0938 27.0312 95.0234 26.9844 94.9141 26.9688C94.8203 26.9375 94.7422 26.8984 94.6797 26.8516C94.5078 26.8828 94.3359 26.8828 94.1641 26.8516C94.0078 26.8047 93.8516 26.7578 93.6953 26.7109C93.5234 26.6641 93.3203 26.6406 93.0859 26.6406C92.8516 26.6406 92.6016 26.6328 92.3359 26.6172C92.2109 26.6172 92.0781 26.6172 91.9375 26.6172C91.7969 26.6016 91.6641 26.6016 91.5391 26.6172C91.3828 26.6484 91.2344 26.6953 91.0938 26.7578C90.9531 26.8047 90.8203 26.8438 90.6953 26.875C90.4297 26.9531 90.1641 27.0469 89.8984 27.1562C89.7422 27.2656 89.6641 27.3281 89.6641 27.3438C89.6641 27.3594 89.6484 27.375 89.6172 27.3906C89.4766 27.5156 89.3906 27.6094 89.3594 27.6719C89.3281 27.7188 89.2891 27.7578 89.2422 27.7891C89.1797 27.9609 89.1484 28.1172 89.1484 28.2578C89.1484 28.3984 89.1562 28.5703 89.1719 28.7734C89.1719 28.8359 89.1641 28.8984 89.1484 28.9609C89.1484 29.0234 89.1562 29.0859 89.1719 29.1484C89.1719 29.2109 89.1953 29.2969 89.2422 29.4062C89.2891 29.5156 89.3281 29.6094 89.3594 29.6875C89.3906 29.7344 89.4609 29.7969 89.5703 29.875C89.6328 30.0156 89.6875 30.1094 89.7344 30.1562C89.7812 30.2031 89.8281 30.2578 89.875 30.3203C89.9531 30.3984 90 30.4609 90.0156 30.5078C90.0469 30.5547 90.1094 30.6094 90.2031 30.6719C90.4219 30.7344 90.5547 30.7578 90.6016 30.7422C90.6484 30.7266 90.7109 30.7031 90.7891 30.6719C90.9141 30.6406 91.0156 30.6094 91.0938 30.5781C91.1719 30.5469 91.2656 30.4844 91.375 30.3906C91.4062 30.3594 91.4453 30.3281 91.4922 30.2969C91.5547 30.2656 91.6016 30.2344 91.6328 30.2031C91.6641 30.1719 91.6797 30.1328 91.6797 30.0859C91.6953 30.0391 91.7188 30 91.75 29.9688C91.8281 29.7188 91.8125 29.5391 91.7031 29.4297C91.6094 29.3203 91.5156 29.2266 91.4219 29.1484C91.25 29.0391 91.1328 29 91.0703 29.0312C91.0234 29.0469 90.9766 29.0703 90.9297 29.1016C90.8672 29.1172 90.8125 29.1406 90.7656 29.1719C90.7344 29.1875 90.7031 29.2109 90.6719 29.2422L90.3672 29.3828C90.2266 29.3516 90.125 29.3516 90.0625 29.3828C90.0781 29.2422 90.125 29.0859 90.2031 28.9141C90.3125 28.7734 90.375 28.7031 90.3906 28.7031C90.5156 28.6094 90.6016 28.5547 90.6484 28.5391C90.7109 28.5234 90.7656 28.5 90.8125 28.4688C90.8594 28.4375 90.8984 28.4219 90.9297 28.4219C90.9609 28.4062 91.0156 28.3828 91.0938 28.3516C91.1562 28.3359 91.2109 28.3203 91.2578 28.3047C91.3047 28.2891 91.3594 28.2891 91.4219 28.3047C91.5938 28.3203 91.7344 28.3984 91.8438 28.5391C91.9688 28.6641 92.0938 28.7656 92.2188 28.8438C92.2812 28.9688 92.3594 29.0859 92.4531 29.1953C92.5469 29.3047 92.5938 29.4375 92.5938 29.5938C92.5469 29.8594 92.5078 30.0156 92.4766 30.0625C92.4453 30.1094 92.3984 30.1562 92.3359 30.2031C92.2891 30.2344 92.2266 30.2891 92.1484 30.3672C92.0859 30.4141 92.0234 30.4688 91.9609 30.5312C91.9141 30.5938 91.8594 30.6484 91.7969 30.6953C91.625 30.8359 91.5469 30.9062 91.5625 30.9062C91.4219 30.9844 91.3359 31.0391 91.3047 31.0703C91.2734 31.0859 91.2422 31.1094 91.2109 31.1406C91.0703 31.25 90.9766 31.3047 90.9297 31.3047C90.8984 31.3047 90.8672 31.3125 90.8359 31.3281C90.7578 31.3906 90.6953 31.4219 90.6484 31.4219C90.6016 31.4219 90.5391 31.4297 90.4609 31.4453C90.3984 31.4609 90.3516 31.4766 90.3203 31.4922C90.2891 31.5078 90.2344 31.5 90.1562 31.4688C90.0469 31.4531 89.9531 31.4141 89.875 31.3516C89.7969 31.2891 89.7188 31.2422 89.6406 31.2109C89.5625 31.1328 89.4844 31.0781 89.4062 31.0469C89.3438 31.0156 89.2891 30.9766 89.2422 30.9297C89.1484 30.8203 89.0469 30.7109 88.9375 30.6016C88.8438 30.4922 88.7578 30.375 88.6797 30.25C88.6328 30.1406 88.5781 30.0312 88.5156 29.9219C88.4688 29.8125 88.4297 29.7031 88.3984 29.5938C88.3672 29.4688 88.3438 29.3359 88.3281 29.1953C88.3125 29.0391 88.2969 28.875 88.2812 28.7031C88.2656 28.5312 88.25 28.3828 88.2344 28.2578C88.2344 28.1172 88.25 27.9766 88.2812 27.8359C88.2969 27.7734 88.3125 27.7109 88.3281 27.6484C88.3594 27.5859 88.3828 27.5156 88.3984 27.4375C88.4141 27.375 88.4141 27.3125 88.3984 27.25C88.3984 27.1875 88.4062 27.1328 88.4219 27.0859C88.4688 27.0078 88.5391 26.9297 88.6328 26.8516C88.7422 26.7578 88.8359 26.6719 88.9141 26.5938C88.9453 26.5625 88.9688 26.5312 88.9844 26.5C89 26.4531 89.0312 26.4141 89.0781 26.3828C89.1875 26.2891 89.2812 26.2344 89.3594 26.2188C89.4531 26.1875 89.5391 26.1562 89.6172 26.125C89.6953 26.0938 89.7578 26.0625 89.8047 26.0312C89.8672 25.9844 89.9375 25.9453 90.0156 25.9141C90.25 25.8828 90.4219 25.8516 90.5312 25.8203C90.6562 25.7891 90.7656 25.7656 90.8594 25.75C90.9375 25.7344 91.0156 25.7344 91.0938 25.75C91.1875 25.75 91.2734 25.75 91.3516 25.75C91.3984 25.75 91.4453 25.7422 91.4922 25.7266C91.5547 25.7109 91.6172 25.6953 91.6797 25.6797C91.9141 25.6641 92.1641 25.6641 92.4297 25.6797C92.6953 25.6797 92.9297 25.6797 93.1328 25.6797C93.2578 25.6797 93.375 25.6797 93.4844 25.6797C93.6094 25.6641 93.7344 25.6562 93.8594 25.6562C94 25.6562 94.1406 25.6719 94.2812 25.7031C94.4219 25.7188 94.5859 25.7266 94.7734 25.7266C94.8359 25.7109 94.8906 25.7109 94.9375 25.7266C94.9844 25.7266 95.0312 25.7266 95.0781 25.7266C95.2031 25.7266 95.3281 25.7344 95.4531 25.75C95.5938 25.75 95.7266 25.75 95.8516 25.75C96.0547 25.75 96.2734 25.75 96.5078 25.75C96.7578 25.7344 96.9922 25.7422 97.2109 25.7734C97.2578 25.7891 97.3203 25.7969 97.3984 25.7969C97.4922 25.7812 97.5703 25.7734 97.6328 25.7734H98.1016C98.3047 25.7578 98.4375 25.7422 98.5 25.7266C98.5625 25.7109 98.625 25.6953 98.6875 25.6797C98.7656 25.6641 98.8438 25.6641 98.9219 25.6797C99 25.6797 99.0781 25.6719 99.1562 25.6562C99.3438 25.625 99.5234 25.5938 99.6953 25.5625C99.8672 25.5156 100.039 25.4609 100.211 25.3984C100.273 25.3828 100.336 25.375 100.398 25.375C100.461 25.3594 100.531 25.3438 100.609 25.3281C100.703 25.3125 100.82 25.3125 100.961 25.3281C101.008 25.2656 101.078 25.2422 101.172 25.2578C101.266 25.2734 101.344 25.2891 101.406 25.3047ZM98.3828 31.1641L98.1719 30.6719C98.125 30.5469 98.0781 30.4219 98.0312 30.2969C97.9844 30.1719 97.9375 30.0469 97.8906 29.9219C97.875 29.875 97.8594 29.8281 97.8438 29.7812C97.8281 29.7344 97.8125 29.6953 97.7969 29.6641C97.7656 29.5547 97.7422 29.4531 97.7266 29.3594C97.7109 29.2656 97.6875 29.1797 97.6562 29.1016C97.6406 29.0391 97.6016 28.9609 97.5391 28.8672C97.4766 28.6641 97.4141 28.5 97.3516 28.375C97.2734 28.1719 97.2344 28.0703 97.2344 28.0703C97.125 27.9297 97.0156 27.8438 96.9062 27.8125C96.7656 27.875 96.6797 27.9219 96.6484 27.9531C96.6328 27.9844 96.625 28.0078 96.625 28.0234C96.5938 28.0547 96.5547 28.0938 96.5078 28.1406C96.4766 28.1719 96.4453 28.2031 96.4141 28.2344C96.3828 28.2812 96.3594 28.3359 96.3438 28.3984C96.3438 28.4453 96.3281 28.5078 96.2969 28.5859C96.2344 28.6328 96.1719 28.6953 96.1094 28.7734C96.0469 28.8516 96 28.9219 95.9688 28.9844L95.7344 29.2422C95.625 29.5391 95.5625 29.7109 95.5469 29.7578C95.4375 29.9609 95.3672 30.125 95.3359 30.25C95.3047 30.3594 95.2656 30.4688 95.2188 30.5781C95.2031 30.7031 95.1797 30.7734 95.1484 30.7891C95.1328 30.8047 95.125 30.8203 95.125 30.8359C95.0938 30.8828 95.0703 30.9375 95.0547 31C95.0547 31.0469 95.0469 31.0938 95.0312 31.1406C95.0156 31.1875 95.0078 31.2422 95.0078 31.3047C95.0078 31.3516 95 31.3984 94.9844 31.4453C94.875 31.6172 94.8047 31.7656 94.7734 31.8906C94.7578 32 94.7266 32.0859 94.6797 32.1484C94.6484 32.1953 94.6172 32.25 94.5859 32.3125C94.5703 32.375 94.5547 32.4219 94.5391 32.4531C94.4141 32.8125 94.3047 33.1484 94.2109 33.4609C94.1172 33.7578 94.0156 34.0312 93.9062 34.2812C93.875 34.3594 93.8359 34.4375 93.7891 34.5156C93.7422 34.5938 93.7031 34.6719 93.6719 34.75C93.6406 34.8281 93.625 34.8984 93.625 34.9609C93.625 35.0234 93.6094 35.0859 93.5781 35.1484C93.5625 35.2109 93.5391 35.2734 93.5078 35.3359C93.4766 35.3828 93.4453 35.4453 93.4141 35.5234C93.3672 35.6484 93.3359 35.7891 93.3203 35.9453C93.3047 36.0859 93.2891 36.2266 93.2734 36.3672C93.4453 36.4297 93.625 36.4531 93.8125 36.4375C94 36.4062 94.1875 36.4062 94.375 36.4375C94.5 36.4531 94.6172 36.4844 94.7266 36.5312C94.8359 36.5625 94.9453 36.5859 95.0547 36.6016C95.1641 36.6172 95.2812 36.6172 95.4062 36.6016C95.5469 36.5859 95.6875 36.5859 95.8281 36.6016C95.9375 36.6016 96.0469 36.6094 96.1562 36.625C96.2656 36.6406 96.375 36.6484 96.4844 36.6484C96.5938 36.6484 96.6875 36.6406 96.7656 36.625C96.8594 36.6094 96.9609 36.6016 97.0703 36.6016C97.1484 36.6016 97.2266 36.6094 97.3047 36.625C97.3828 36.625 97.4609 36.625 97.5391 36.625C97.7266 36.625 97.9141 36.625 98.1016 36.625C98.2891 36.6094 98.4844 36.5938 98.6875 36.5781C98.9062 36.5469 99.1328 36.5156 99.3672 36.4844C99.6172 36.4375 99.8047 36.375 99.9297 36.2969C99.9609 35.9688 99.9297 35.6719 99.8359 35.4062C99.7422 35.1406 99.6562 34.8672 99.5781 34.5859C99.5781 34.5547 99.5781 34.5156 99.5781 34.4688C99.5781 34.4062 99.5703 34.3594 99.5547 34.3281C99.4609 34.1406 99.4062 34.0078 99.3906 33.9297C99.3906 33.8516 99.3828 33.7734 99.3672 33.6953C99.3516 33.6641 99.3281 33.6094 99.2969 33.5312C99.2812 33.4375 99.2734 33.375 99.2734 33.3438C99.2891 33.2188 99.2812 33.125 99.25 33.0625C99.2344 33 99.2188 32.9297 99.2031 32.8516C99.1719 32.7266 99.1484 32.6016 99.1328 32.4766C99.1328 32.3516 99.1094 32.25 99.0625 32.1719L98.8516 31.9609C98.8047 31.8984 98.7578 31.8438 98.7109 31.7969C98.6797 31.7344 98.6406 31.6797 98.5938 31.6328C98.5938 31.5391 98.5625 31.4609 98.5 31.3984C98.4531 31.3203 98.4141 31.2422 98.3828 31.1641ZM113.148 34.8438C113.039 34.7656 113.016 34.7031 113.078 34.6562C113.156 34.5938 113.211 34.5156 113.242 34.4219C113.289 34.2344 113.266 34.0625 113.172 33.9062C113.031 33.9062 112.906 33.9453 112.797 34.0234C112.703 34.0859 112.617 34.1641 112.539 34.2578C112.383 34.4922 112.273 34.6875 112.211 34.8438C112.133 35.1562 112.109 35.3359 112.141 35.3828C112.188 35.4297 112.273 35.4922 112.398 35.5703C112.617 35.6797 112.828 35.7656 113.031 35.8281C113.234 35.8906 113.398 35.8984 113.523 35.8516C113.586 35.8359 113.656 35.7812 113.734 35.6875C113.812 35.5938 113.875 35.5078 113.922 35.4297C113.969 35.3672 114.023 35.2969 114.086 35.2188C114.148 35.125 114.203 35.0391 114.25 34.9609C114.281 34.8828 114.305 34.8359 114.32 34.8203C114.336 34.7891 114.352 34.7578 114.367 34.7266C114.414 34.4609 114.461 34.2656 114.508 34.1406C114.555 34.0156 114.562 33.8672 114.531 33.6953C114.531 33.6172 114.516 33.5156 114.484 33.3906C114.469 33.3438 114.461 33.2969 114.461 33.25C114.461 33.2031 114.453 33.1641 114.438 33.1328C114.328 32.9922 114.266 32.9141 114.25 32.8984C114.25 32.8672 114.242 32.8438 114.227 32.8281C114.133 32.7031 114.07 32.6094 114.039 32.5469C114.023 32.4688 114 32.4062 113.969 32.3594C113.922 32.2969 113.883 32.2422 113.852 32.1953C113.836 32.1328 113.812 32.0859 113.781 32.0547C113.719 32.0078 113.625 31.9609 113.5 31.9141C113.375 31.8672 113.25 31.8594 113.125 31.8906C112.906 31.9375 112.766 31.9766 112.703 32.0078C112.641 32.0391 112.57 32.0703 112.492 32.1016C112.43 32.1328 112.359 32.1484 112.281 32.1484C112.203 32.1484 112.125 32.1641 112.047 32.1953C111.969 32.2266 111.898 32.2656 111.836 32.3125C111.773 32.3594 111.703 32.3984 111.625 32.4297C111.531 32.4922 111.445 32.5391 111.367 32.5703C111.289 32.6016 111.227 32.6328 111.18 32.6641C111.07 32.7266 110.969 32.8125 110.875 32.9219C110.781 33.0312 110.68 33.1484 110.57 33.2734C110.445 33.4297 110.375 33.5234 110.359 33.5547C110.359 33.5859 110.344 33.6172 110.312 33.6484C110.281 33.6797 110.25 33.7188 110.219 33.7656C110.203 33.8125 110.18 33.8516 110.148 33.8828C110.086 33.9453 110.047 34 110.031 34.0469C110.016 34.0781 110 34.1094 109.984 34.1406C109.953 34.2031 109.914 34.2812 109.867 34.375C109.836 34.4688 109.797 34.5547 109.75 34.6328C109.656 34.8203 109.586 34.9844 109.539 35.125C109.508 35.25 109.469 35.3906 109.422 35.5469C109.391 35.6406 109.352 35.7266 109.305 35.8047C109.258 35.8828 109.227 35.9609 109.211 36.0391C109.18 36.2109 109.172 36.3906 109.188 36.5781C109.219 36.7656 109.234 36.9453 109.234 37.1172C109.234 37.2734 109.227 37.3594 109.211 37.375C109.211 37.3906 109.211 37.4141 109.211 37.4453C109.242 37.8359 109.242 38.2891 109.211 38.8047C109.195 39.3047 109.203 39.7344 109.234 40.0938C109.25 40.1719 109.258 40.2578 109.258 40.3516C109.273 40.4297 109.289 40.5156 109.305 40.6094C109.305 40.7031 109.305 40.7969 109.305 40.8906C109.305 40.9844 109.32 41.0547 109.352 41.1016C109.398 41.2266 109.508 41.3594 109.68 41.5C109.852 41.625 110 41.7266 110.125 41.8047L110.383 41.9922C110.508 42.0547 110.586 42.1016 110.617 42.1328C110.664 42.1484 110.711 42.1719 110.758 42.2031C110.836 42.25 110.922 42.2969 111.016 42.3438C111.109 42.3906 111.172 42.4766 111.203 42.6016C111.016 42.6797 110.82 42.7344 110.617 42.7656C110.43 42.7969 110.211 42.8281 109.961 42.8594C109.836 42.875 109.711 42.8906 109.586 42.9062C109.477 42.9219 109.352 42.9375 109.211 42.9531C109.164 42.9531 109.109 42.9609 109.047 42.9766C108.984 42.9766 108.93 42.9766 108.883 42.9766C108.805 42.9766 108.734 42.9688 108.672 42.9531C108.609 42.9375 108.547 42.9219 108.484 42.9062C108.375 42.9062 108.266 42.9141 108.156 42.9297C108.047 42.9453 107.945 42.9375 107.852 42.9062C107.805 42.9062 107.758 42.8984 107.711 42.8828C107.664 42.8672 107.617 42.8516 107.57 42.8359C107.492 42.8047 107.414 42.7891 107.336 42.7891C107.273 42.7891 107.211 42.7734 107.148 42.7422C107.023 42.7109 106.883 42.6797 106.727 42.6484C106.57 42.6172 106.43 42.5859 106.305 42.5547C106.242 42.6016 106.188 42.6016 106.141 42.5547C106.109 42.4922 106.078 42.4453 106.047 42.4141C106.188 42.3203 106.281 42.2656 106.328 42.25C106.391 42.2344 106.438 42.2109 106.469 42.1797C106.625 42.0703 106.719 42 106.75 41.9688C106.797 41.9219 106.844 41.875 106.891 41.8281C107.031 41.75 107.117 41.6875 107.148 41.6406C107.195 41.5781 107.25 41.5156 107.312 41.4531C107.422 41.375 107.484 41.3281 107.5 41.3125C107.531 41.2969 107.562 41.2734 107.594 41.2422C107.719 41.1484 107.797 41.0703 107.828 41.0078C107.859 40.9453 107.898 40.8906 107.945 40.8438C107.914 40.7812 107.906 40.7188 107.922 40.6562C107.953 40.5781 107.969 40.5 107.969 40.4219C107.969 40.3906 107.961 40.3516 107.945 40.3047C107.93 40.2578 107.93 40.2109 107.945 40.1641C107.945 40.1172 107.953 40.0703 107.969 40.0234C108 39.9609 108.023 39.8984 108.039 39.8359C108.039 39.7734 108.031 39.7188 108.016 39.6719C108 39.625 107.992 39.5625 107.992 39.4844C107.992 39.3906 107.992 39.2891 107.992 39.1797C108.008 39.0703 108.008 38.9531 107.992 38.8281C107.992 38.7812 107.984 38.7344 107.969 38.6875C107.969 38.625 107.969 38.5703 107.969 38.5234C107.969 38.4453 107.977 38.375 107.992 38.3125C108.023 38.2344 108.047 38.1562 108.062 38.0781C108.078 37.9375 108.086 37.7969 108.086 37.6562C108.086 37.5 108.102 37.3828 108.133 37.3047C108.148 37.2734 108.148 37.2344 108.133 37.1875C108.133 37.125 108.133 37.0625 108.133 37C108.148 36.7812 108.141 36.6172 108.109 36.5078C108.094 36.3984 108.078 36.2969 108.062 36.2031C108.047 36.1094 108.031 36.0156 108.016 35.9219C108.016 35.8125 108.008 35.7031 107.992 35.5938C107.992 35.5156 107.984 35.4453 107.969 35.3828C107.953 35.3047 107.938 35.2266 107.922 35.1484C107.875 34.9766 107.828 34.7812 107.781 34.5625C107.75 34.3438 107.719 34.1328 107.688 33.9297C107.672 33.8828 107.648 33.7969 107.617 33.6719C107.586 33.5156 107.555 33.3828 107.523 33.2734C107.508 33.1484 107.477 33.0156 107.43 32.875C107.398 32.7969 107.367 32.7188 107.336 32.6406C107.32 32.5469 107.297 32.4688 107.266 32.4062C107.234 32.375 107.195 32.3438 107.148 32.3125C107.117 32.2812 107.07 32.2422 107.008 32.1953C106.977 32.1641 106.938 32.1328 106.891 32.1016C106.859 32.0703 106.828 32.0391 106.797 32.0078C106.594 31.9297 106.445 31.8594 106.352 31.7969C106.273 31.7656 106.195 31.7422 106.117 31.7266C106.039 31.6953 105.961 31.6641 105.883 31.6328C105.648 31.4922 105.516 31.4062 105.484 31.375C105.328 31.25 105.234 31.1875 105.203 31.1875C105.156 31.1875 105.133 31.1562 105.133 31.0938C105.164 31.0312 105.219 31 105.297 31C105.375 31 105.445 31.0078 105.508 31.0234C105.57 31.0703 105.633 31.0938 105.695 31.0938C105.758 31.0938 105.805 31.0938 105.836 31.0938C105.898 31.1094 105.953 31.125 106 31.1406C106.062 31.1562 106.133 31.1641 106.211 31.1641C106.273 31.1641 106.336 31.1562 106.398 31.1406C106.461 31.125 106.531 31.125 106.609 31.1406C106.766 31.1406 106.922 31.1484 107.078 31.1641C107.234 31.1797 107.391 31.1875 107.547 31.1875C107.594 31.1875 107.641 31.1875 107.688 31.1875C107.75 31.1719 107.805 31.1641 107.852 31.1641C107.914 31.1641 107.977 31.1719 108.039 31.1875C108.117 31.2031 108.188 31.2109 108.25 31.2109C108.312 31.2109 108.367 31.2031 108.414 31.1875C108.477 31.1719 108.539 31.1641 108.602 31.1641C108.633 31.1641 108.672 31.1719 108.719 31.1875C108.766 31.1875 108.812 31.1875 108.859 31.1875C108.938 31.1875 109.039 31.1875 109.164 31.1875C109.289 31.1875 109.391 31.2188 109.469 31.2812C109.484 31.4062 109.477 31.5156 109.445 31.6094C109.414 31.7031 109.391 31.8047 109.375 31.9141C109.359 32.0859 109.352 32.2578 109.352 32.4297C109.367 32.6016 109.375 32.7656 109.375 32.9219C109.391 33.0469 109.391 33.1719 109.375 33.2969C109.375 33.4062 109.359 33.5234 109.328 33.6484C109.312 33.6953 109.305 33.7812 109.305 33.9062C109.305 34.0156 109.297 34.1172 109.281 34.2109C109.375 34.0859 109.43 34.0234 109.445 34.0234C109.461 34.0078 109.477 33.9844 109.492 33.9531L109.773 33.3672C109.805 33.3359 109.828 33.3047 109.844 33.2734C109.875 33.2266 109.898 33.1797 109.914 33.1328C109.992 32.9922 110.031 32.8906 110.031 32.8281C110.172 32.6562 110.258 32.5469 110.289 32.5C110.32 32.4375 110.359 32.375 110.406 32.3125C110.438 32.2656 110.477 32.2109 110.523 32.1484C110.57 32.0859 110.617 32.0234 110.664 31.9609C110.773 31.8359 110.852 31.7422 110.898 31.6797C110.961 31.6016 111.016 31.5312 111.062 31.4688C111.203 31.3594 111.344 31.2812 111.484 31.2344C111.547 31.1562 111.625 31.0938 111.719 31.0469C111.828 31 111.938 30.9531 112.047 30.9062C112.188 30.8281 112.273 30.7969 112.305 30.8125C112.336 30.8125 112.375 30.8047 112.422 30.7891C112.516 30.7578 112.625 30.7266 112.75 30.6953C112.875 30.6484 113.031 30.6406 113.219 30.6719C113.297 30.6875 113.383 30.7266 113.477 30.7891C113.57 30.8516 113.664 30.9062 113.758 30.9531C113.805 30.9844 113.891 31.0312 114.016 31.0938C114.078 31.125 114.133 31.1484 114.18 31.1641C114.242 31.1641 114.289 31.1797 114.32 31.2109C114.492 31.3672 114.617 31.4766 114.695 31.5391C114.789 31.6016 114.867 31.6641 114.93 31.7266C115.055 31.8047 115.172 31.8828 115.281 31.9609C115.406 32.0391 115.5 32.1172 115.562 32.1953C115.594 32.2266 115.609 32.2656 115.609 32.3125C115.625 32.3594 115.648 32.3984 115.68 32.4297C115.789 32.5859 115.852 32.7344 115.867 32.875C115.898 33 115.922 33.125 115.938 33.25C115.969 33.4688 115.977 33.6641 115.961 33.8359C115.961 34.0078 115.945 34.1797 115.914 34.3516C115.867 34.5234 115.844 34.6328 115.844 34.6797C115.859 34.7109 115.859 34.7422 115.844 34.7734C115.828 34.8203 115.805 34.8672 115.773 34.9141C115.758 34.9453 115.742 34.9844 115.727 35.0312C115.711 35.0938 115.703 35.1484 115.703 35.1953C115.703 35.2422 115.695 35.2891 115.68 35.3359C115.648 35.3984 115.609 35.4609 115.562 35.5234C115.516 35.5703 115.477 35.625 115.445 35.6875C115.398 35.7969 115.352 35.8672 115.305 35.8984C115.273 35.9297 115.258 35.9766 115.258 36.0391C115.133 36.1016 115.031 36.1719 114.953 36.25C114.891 36.3125 114.812 36.3828 114.719 36.4609C114.641 36.5391 114.57 36.5938 114.508 36.625C114.461 36.6562 114.422 36.6719 114.391 36.6719C114.375 36.6562 114.32 36.6562 114.227 36.6719C114.148 36.6875 114.102 36.7031 114.086 36.7188C114.086 36.7344 114.031 36.7344 113.922 36.7188C113.859 36.7031 113.789 36.6875 113.711 36.6719C113.633 36.6562 113.555 36.6406 113.477 36.625C113.43 36.6094 113.383 36.6094 113.336 36.625C113.289 36.625 113.25 36.6172 113.219 36.6016C113 36.5078 112.852 36.4609 112.773 36.4609C112.695 36.4453 112.617 36.4219 112.539 36.3906C112.461 36.375 112.398 36.3594 112.352 36.3438C112.32 36.3125 112.266 36.2812 112.188 36.25C112.078 36.2188 111.945 36.1719 111.789 36.1094C111.648 36.0469 111.562 35.9844 111.531 35.9219C111.5 35.875 111.484 35.8281 111.484 35.7812C111.5 35.7188 111.5 35.6484 111.484 35.5703C111.453 35.3203 111.453 35.0859 111.484 34.8672C111.5 34.8047 111.508 34.7422 111.508 34.6797C111.508 34.6016 111.516 34.5234 111.531 34.4453C111.547 34.3984 111.57 34.3516 111.602 34.3047C111.633 34.2578 111.656 34.2109 111.672 34.1641C111.719 34.0391 111.75 33.9766 111.766 33.9766C111.781 33.9609 111.789 33.9453 111.789 33.9297C111.82 33.8359 111.898 33.7422 112.023 33.6484C112.148 33.5547 112.234 33.5 112.281 33.4844C112.344 33.4531 112.461 33.4219 112.633 33.3906C112.82 33.375 112.984 33.375 113.125 33.3906C113.188 33.4062 113.242 33.4375 113.289 33.4844C113.352 33.5312 113.414 33.5703 113.477 33.6016C113.508 33.6328 113.555 33.6641 113.617 33.6953C113.68 33.7109 113.727 33.75 113.758 33.8125C113.789 33.9531 113.773 34.0703 113.711 34.1641C113.664 34.2578 113.609 34.3438 113.547 34.4219C113.516 34.4688 113.484 34.5156 113.453 34.5625C113.438 34.6094 113.414 34.6484 113.383 34.6797C113.352 34.7109 113.32 34.7578 113.289 34.8203C113.273 34.8672 113.227 34.875 113.148 34.8438ZM119.594 26.2656C119.609 26.3438 119.602 26.4375 119.57 26.5469C119.539 26.6406 119.516 26.7344 119.5 26.8281C119.484 26.8906 119.477 26.9531 119.477 27.0156C119.477 27.0625 119.461 27.1172 119.43 27.1797C119.414 27.2422 119.398 27.3047 119.383 27.3672C119.383 27.4297 119.375 27.5 119.359 27.5781C119.344 27.7031 119.336 27.8359 119.336 27.9766C119.352 28.1172 119.352 28.25 119.336 28.375C119.32 28.4844 119.305 28.5859 119.289 28.6797C119.273 28.7734 119.25 28.8672 119.219 28.9609C119.188 29.1328 119.156 29.3125 119.125 29.5C119.109 29.6875 119.086 29.8828 119.055 30.0859C119.055 30.1953 119.047 30.2969 119.031 30.3906C119.016 30.4844 119 30.5859 118.984 30.6953C118.969 30.8672 118.961 31.0391 118.961 31.2109C118.961 31.3672 118.938 31.5156 118.891 31.6562C119.156 31.6719 119.422 31.6719 119.688 31.6562C119.969 31.6406 120.266 31.6484 120.578 31.6797C120.656 31.6953 120.719 31.7109 120.766 31.7266C120.812 31.7266 120.867 31.7344 120.93 31.75C121.242 31.7812 121.539 31.8047 121.82 31.8203C122.117 31.8203 122.406 31.8438 122.688 31.8906C122.672 31.9688 122.633 32.0234 122.57 32.0547C122.508 32.0703 122.438 32.0938 122.359 32.125C122.234 32.1719 122.102 32.2031 121.961 32.2188C121.82 32.2188 121.672 32.2344 121.516 32.2656C121.359 32.2969 121.211 32.3125 121.07 32.3125C120.852 32.3438 120.617 32.3672 120.367 32.3828C120.133 32.3984 119.898 32.4219 119.664 32.4531C119.539 32.4844 119.414 32.5156 119.289 32.5469C119.18 32.5781 119.039 32.5781 118.867 32.5469C118.789 32.7344 118.766 32.9453 118.797 33.1797C118.828 33.3984 118.852 33.6328 118.867 33.8828C118.883 34.0078 118.883 34.1406 118.867 34.2812C118.852 34.4062 118.859 34.5312 118.891 34.6562C118.922 34.8438 118.93 34.9609 118.914 35.0078C118.914 35.0547 118.914 35.1094 118.914 35.1719C118.898 35.3125 118.883 35.4688 118.867 35.6406C118.867 35.7969 118.867 35.9609 118.867 36.1328C118.867 36.3672 118.859 36.5938 118.844 36.8125C118.828 37.0156 118.836 37.1875 118.867 37.3281C118.867 37.3906 118.875 37.4531 118.891 37.5156C118.906 37.5781 118.922 37.6484 118.938 37.7266C118.984 38.0391 119.023 38.375 119.055 38.7344C119.102 39.0781 119.148 39.4219 119.195 39.7656C119.227 39.9844 119.258 40.1719 119.289 40.3281C119.32 40.4219 119.336 40.5312 119.336 40.6562C119.336 40.7656 119.352 40.8672 119.383 40.9609C119.398 41.0078 119.414 41.0547 119.43 41.1016C119.461 41.1484 119.492 41.1953 119.523 41.2422C119.555 41.2891 119.57 41.3438 119.57 41.4062C119.586 41.4531 119.602 41.4922 119.617 41.5234C119.648 41.5703 119.688 41.6094 119.734 41.6406C119.781 41.6562 119.828 41.6875 119.875 41.7344C120 41.8125 120.086 41.8828 120.133 41.9453C120.18 41.9922 120.234 42.0312 120.297 42.0625C120.344 42.0938 120.398 42.1172 120.461 42.1328C120.539 42.1328 120.609 42.1484 120.672 42.1797C120.734 42.2109 120.789 42.2422 120.836 42.2734C120.883 42.2891 120.93 42.3047 120.977 42.3203C121.008 42.3359 121.047 42.3438 121.094 42.3438C121.141 42.3438 121.188 42.3516 121.234 42.3672C121.312 42.3828 121.406 42.3984 121.516 42.4141C121.625 42.4141 121.742 42.4297 121.867 42.4609C121.945 42.4609 121.992 42.4609 122.008 42.4609C122.039 42.4609 122.094 42.4453 122.172 42.4141C122.25 42.3672 122.32 42.3203 122.383 42.2734C122.445 42.2266 122.523 42.1719 122.617 42.1094C122.648 42 122.719 41.8906 122.828 41.7812C122.828 41.7031 122.852 41.6328 122.898 41.5703C122.945 41.5078 122.984 41.4297 123.016 41.3359C123.031 41.2734 123.039 41.2031 123.039 41.125C123.055 41.0469 123.078 40.9688 123.109 40.8906C123.125 40.8125 123.141 40.7422 123.156 40.6797C123.172 40.6016 123.188 40.5234 123.203 40.4453C123.219 40.3047 123.211 40.1562 123.18 40C123.164 39.8438 123.148 39.6953 123.133 39.5547C123.117 39.4609 123.078 39.3672 123.016 39.2734C122.953 39.1641 122.906 39.0703 122.875 38.9922C122.812 38.9141 122.75 38.8438 122.688 38.7812C122.641 38.7031 122.578 38.6484 122.5 38.6172C122.391 38.5703 122.273 38.5547 122.148 38.5703C122.023 38.5703 121.914 38.5938 121.82 38.6406C121.727 38.7188 121.672 38.7578 121.656 38.7578C121.641 38.7578 121.617 38.7656 121.586 38.7812C121.492 38.875 121.422 38.9375 121.375 38.9688C121.344 38.9844 121.32 39.0078 121.305 39.0391C121.273 39.0859 121.242 39.1875 121.211 39.3438C121.18 39.3906 121.148 39.4453 121.117 39.5078C121.102 39.5703 121.094 39.6172 121.094 39.6484C121.062 39.7891 121.047 39.9375 121.047 40.0938C121.062 40.2344 121.078 40.375 121.094 40.5156C121.188 40.5625 121.305 40.6094 121.445 40.6562C121.492 40.6875 121.539 40.7188 121.586 40.75C121.648 40.7656 121.719 40.7734 121.797 40.7734C121.859 40.7734 121.93 40.7578 122.008 40.7266C122.086 40.6797 122.141 40.6328 122.172 40.5859C122.25 40.3984 122.289 40.2812 122.289 40.2344C122.289 40.1719 122.266 40.1172 122.219 40.0703C122.188 40.0234 122.156 39.9844 122.125 39.9531C122.078 39.9219 122.016 39.8906 121.938 39.8594C121.875 39.8125 121.836 39.7422 121.82 39.6484C121.883 39.5703 122.008 39.5312 122.195 39.5312C122.258 39.5312 122.336 39.5391 122.43 39.5547C122.523 39.5703 122.586 39.5938 122.617 39.625C122.695 39.6875 122.75 39.7969 122.781 39.9531C122.812 40.0938 122.812 40.2266 122.781 40.3516C122.734 40.5547 122.633 40.7109 122.477 40.8203C122.398 40.8828 122.297 40.9375 122.172 40.9844C122.062 41.0156 121.977 41.0312 121.914 41.0312C121.867 41.0312 121.812 41.0312 121.75 41.0312C121.703 41.0156 121.664 41.0078 121.633 41.0078C121.555 40.9766 121.484 40.9531 121.422 40.9375C121.359 40.9062 121.297 40.875 121.234 40.8438C121.172 40.8125 121.117 40.7891 121.07 40.7734C121.023 40.7578 120.961 40.7344 120.883 40.7031C120.82 40.5312 120.797 40.4453 120.812 40.4453C120.828 40.4453 120.836 40.4375 120.836 40.4219C120.789 40.25 120.773 40.1172 120.789 40.0234C120.805 39.9297 120.82 39.8438 120.836 39.7656C120.836 39.6875 120.82 39.6172 120.789 39.5547C120.773 39.4766 120.773 39.3984 120.789 39.3203C120.789 39.1484 120.812 38.9922 120.859 38.8516C120.922 38.7109 120.945 38.5547 120.93 38.3828C120.992 38.3672 121.039 38.3438 121.07 38.3125C121.117 38.2812 121.172 38.2578 121.234 38.2422C121.297 38.2266 121.359 38.2266 121.422 38.2422C121.5 38.2578 121.578 38.2656 121.656 38.2656C121.781 38.25 121.898 38.2266 122.008 38.1953C122.133 38.1484 122.258 38.1328 122.383 38.1484C122.602 38.1797 122.781 38.2344 122.922 38.3125C122.984 38.3438 123.047 38.3984 123.109 38.4766C123.172 38.5547 123.242 38.6328 123.32 38.7109C123.477 38.8359 123.57 38.9297 123.602 38.9922C123.633 39.0391 123.664 39.0781 123.695 39.1094C123.727 39.1406 123.742 39.1875 123.742 39.25C123.742 39.2969 123.758 39.3516 123.789 39.4141C123.82 39.5234 123.844 39.625 123.859 39.7188C123.891 39.8125 123.906 39.9375 123.906 40.0938C123.906 40.1875 123.898 40.2812 123.883 40.375C123.867 40.4688 123.852 40.5781 123.836 40.7031C123.82 40.8125 123.812 40.9141 123.812 41.0078C123.828 41.1016 123.82 41.2031 123.789 41.3125C123.727 41.5938 123.68 41.7734 123.648 41.8516C123.633 41.9297 123.602 42.0312 123.555 42.1562C123.477 42.2812 123.406 42.4062 123.344 42.5312C123.281 42.6562 123.227 42.7734 123.18 42.8828C123.102 42.9141 123.031 42.9531 122.969 43C122.922 43.0312 122.859 43.0625 122.781 43.0938C122.469 43.25 122.164 43.3672 121.867 43.4453C121.82 43.4609 121.773 43.4688 121.727 43.4688C121.695 43.4688 121.656 43.4844 121.609 43.5156C121.562 43.5312 121.516 43.5469 121.469 43.5625C121.422 43.5781 121.383 43.5938 121.352 43.6094C121.273 43.625 121.203 43.625 121.141 43.6094C121.078 43.6094 121.008 43.6172 120.93 43.6328C120.758 43.6328 120.656 43.6406 120.625 43.6562C120.594 43.6719 120.562 43.6797 120.531 43.6797C120.375 43.6641 120.219 43.6484 120.062 43.6328C119.922 43.6172 119.789 43.5938 119.664 43.5625C119.586 43.5469 119.523 43.5391 119.477 43.5391C119.445 43.5391 119.391 43.5312 119.312 43.5156C119.266 43.4844 119.203 43.4453 119.125 43.3984C119.062 43.3516 119 43.3125 118.938 43.2812C118.844 43.1875 118.781 43.1328 118.75 43.1172C118.719 43.1172 118.695 43.1094 118.68 43.0938C118.633 43.0312 118.594 42.9766 118.562 42.9297C118.547 42.8828 118.523 42.8359 118.492 42.7891C118.383 42.6641 118.312 42.5547 118.281 42.4609C118.188 42.3359 118.141 42.2656 118.141 42.25C118.141 42.2188 118.133 42.1875 118.117 42.1562C118.07 41.9844 118.016 41.8672 117.953 41.8047C117.891 41.7422 117.844 41.6875 117.812 41.6406C117.766 41.5625 117.711 41.4766 117.648 41.3828C117.602 41.2891 117.578 41.1797 117.578 41.0547C117.562 40.9922 117.562 40.9219 117.578 40.8438C117.594 40.7656 117.602 40.6875 117.602 40.6094C117.617 40.4375 117.625 40.2891 117.625 40.1641C117.641 40.0234 117.648 39.8906 117.648 39.7656C117.648 39.4062 117.641 39.0703 117.625 38.7578C117.625 38.4297 117.641 38.1094 117.672 37.7969C117.688 37.5938 117.688 37.4609 117.672 37.3984C117.656 37.3359 117.648 37.2734 117.648 37.2109C117.648 37.1016 117.648 36.9922 117.648 36.8828C117.664 36.7734 117.68 36.6562 117.695 36.5312C117.711 36.4062 117.719 36.2812 117.719 36.1562C117.719 36.0312 117.727 35.9141 117.742 35.8047C117.742 35.7422 117.75 35.6875 117.766 35.6406C117.781 35.5781 117.789 35.5078 117.789 35.4297C117.82 35.1172 117.828 34.8125 117.812 34.5156C117.812 34.2188 117.82 33.9375 117.836 33.6719C117.836 33.5469 117.844 33.4297 117.859 33.3203C117.875 33.2109 117.891 33.0938 117.906 32.9688C117.922 32.8125 117.922 32.6953 117.906 32.6172C117.891 32.5391 117.898 32.4688 117.93 32.4062C117.805 32.3281 117.664 32.2891 117.508 32.2891C117.367 32.2891 117.219 32.2734 117.062 32.2422C117.016 32.2266 116.93 32.2031 116.805 32.1719C116.758 32.1562 116.711 32.1484 116.664 32.1484C116.633 32.1328 116.594 32.125 116.547 32.125C116.516 32.1094 116.469 32.1016 116.406 32.1016C116.359 32.0859 116.312 32.0703 116.266 32.0547C116.109 31.9141 116.055 31.8359 116.102 31.8203C116.164 31.8047 116.219 31.7891 116.266 31.7734C116.312 31.7422 116.367 31.7344 116.43 31.75C116.508 31.75 116.578 31.75 116.641 31.75C116.766 31.7031 116.844 31.6875 116.875 31.7031C116.922 31.7031 116.961 31.7031 116.992 31.7031C117.117 31.6875 117.258 31.6719 117.414 31.6562C117.586 31.6406 117.758 31.6406 117.93 31.6562C117.992 31.5469 118.016 31.4453 118 31.3516C118 31.2422 118 31.125 118 31C118 30.8594 118 30.7266 118 30.6016C118.016 30.4609 118.031 30.3125 118.047 30.1562V29.8516C118.047 29.7891 118.031 29.7344 118 29.6875C117.984 29.625 117.977 29.5547 117.977 29.4766C117.945 29.3516 117.93 29.2188 117.93 29.0781C117.945 28.9375 117.945 28.8047 117.93 28.6797C117.898 28.4766 117.859 28.2891 117.812 28.1172C117.766 27.9453 117.68 27.8047 117.555 27.6953C117.414 27.6328 117.336 27.5938 117.32 27.5781C117.32 27.5625 117.312 27.5469 117.297 27.5312C117.031 27.4375 116.828 27.3516 116.688 27.2734C116.609 27.2422 116.539 27.2266 116.477 27.2266C116.414 27.2109 116.336 27.1875 116.242 27.1562C116.164 27.125 116.094 27.1016 116.031 27.0859C115.969 27.0547 115.891 27.0234 115.797 26.9922C115.75 26.9766 115.695 26.9688 115.633 26.9688C115.57 26.9531 115.492 26.9297 115.398 26.8984C115.18 26.8203 115.031 26.7891 114.953 26.8047C114.875 26.8047 114.812 26.7656 114.766 26.6875C114.766 26.6562 114.797 26.625 114.859 26.5938C114.906 26.5625 114.953 26.5391 115 26.5234C115.125 26.5703 115.203 26.5938 115.234 26.5938C115.25 26.5781 115.266 26.5703 115.281 26.5703C115.406 26.5703 115.539 26.5781 115.68 26.5938C115.805 26.5938 115.93 26.5781 116.055 26.5469C116.086 26.5469 116.125 26.5312 116.172 26.5C116.219 26.4688 116.266 26.4531 116.312 26.4531C116.359 26.4375 116.414 26.4297 116.477 26.4297C116.539 26.4297 116.594 26.4297 116.641 26.4297C116.797 26.3984 116.945 26.3672 117.086 26.3359C117.242 26.3047 117.422 26.2891 117.625 26.2891C117.75 26.3047 117.859 26.3203 117.953 26.3359C118.047 26.3359 118.156 26.3281 118.281 26.3125C118.453 26.2969 118.539 26.2891 118.539 26.2891C118.742 26.2734 118.93 26.25 119.102 26.2188C119.164 26.2031 119.242 26.1953 119.336 26.1953C119.43 26.1797 119.516 26.2031 119.594 26.2656ZM126.484 28.1406C126.531 28.1094 126.609 28.1094 126.719 28.1406C126.828 28.1562 126.922 28.1719 127 28.1875C127.094 28.2188 127.188 28.2422 127.281 28.2578C127.391 28.2578 127.484 28.2734 127.562 28.3047C127.625 28.3359 127.695 28.4062 127.773 28.5156C127.805 28.5469 127.836 28.5781 127.867 28.6094C127.914 28.6406 127.945 28.6719 127.961 28.7031C128.023 28.8594 128.07 28.9766 128.102 29.0547C128.148 29.1328 128.18 29.2109 128.195 29.2891C128.102 29.5703 128.008 29.7422 127.914 29.8047C127.758 29.9453 127.648 30.0625 127.586 30.1562C127.539 30.25 127.453 30.3125 127.328 30.3438C127.281 30.3594 127.195 30.3672 127.07 30.3672C126.898 30.4141 126.789 30.4375 126.742 30.4375C126.695 30.4219 126.648 30.4219 126.602 30.4375C126.367 30.4531 126.203 30.4375 126.109 30.3906C126.031 30.3281 125.953 30.2812 125.875 30.25C125.828 30.1562 125.781 30.0625 125.734 29.9688C125.703 29.8594 125.672 29.7422 125.641 29.6172C125.625 29.5234 125.617 29.4531 125.617 29.4062C125.617 29.3594 125.617 29.2812 125.617 29.1719C125.648 28.9688 125.703 28.8281 125.781 28.75C125.875 28.6719 125.945 28.5938 125.992 28.5156C126.086 28.4062 126.133 28.3438 126.133 28.3281C126.148 28.3125 126.172 28.2969 126.203 28.2812C126.234 28.25 126.281 28.2266 126.344 28.2109C126.406 28.1953 126.453 28.1719 126.484 28.1406ZM127.984 31.75C128 31.8281 127.992 31.8906 127.961 31.9375C127.945 31.9844 127.938 32.0469 127.938 32.125C127.938 32.2344 127.945 32.3438 127.961 32.4531C127.992 32.5625 128 32.6719 127.984 32.7812C127.984 32.8594 127.977 32.9375 127.961 33.0156C127.961 33.0781 127.953 33.1484 127.938 33.2266C127.906 33.5234 127.883 33.8594 127.867 34.2344C127.867 34.5938 127.852 34.9453 127.82 35.2891C127.805 35.4609 127.781 35.6328 127.75 35.8047C127.719 35.9609 127.695 36.125 127.68 36.2969C127.68 36.4688 127.688 36.625 127.703 36.7656C127.719 36.9062 127.727 37.0547 127.727 37.2109C127.711 37.3203 127.695 37.4375 127.68 37.5625C127.68 37.6719 127.664 37.7891 127.633 37.9141C127.602 38.0859 127.594 38.2812 127.609 38.5C127.625 38.7188 127.641 38.9219 127.656 39.1094C127.672 39.2969 127.688 39.4844 127.703 39.6719C127.719 39.8594 127.742 40.0391 127.773 40.2109C127.805 40.3203 127.844 40.4297 127.891 40.5391C127.953 40.6484 128.008 40.75 128.055 40.8438C128.117 41.0156 128.156 41.1094 128.172 41.125C128.188 41.125 128.203 41.1328 128.219 41.1484C128.281 41.2734 128.344 41.3672 128.406 41.4297C128.438 41.4766 128.469 41.5234 128.5 41.5703C128.547 41.6172 128.586 41.6562 128.617 41.6875C128.664 41.7656 128.727 41.8281 128.805 41.875C128.883 41.9219 128.961 41.9844 129.039 42.0625C129.164 42.2031 129.242 42.2891 129.273 42.3203C129.32 42.3359 129.336 42.3672 129.32 42.4141C129.242 42.4297 129.172 42.4453 129.109 42.4609C129.047 42.4609 128.977 42.4688 128.898 42.4844C128.758 42.5156 128.656 42.5469 128.594 42.5781C128.484 42.5938 128.375 42.6016 128.266 42.6016C128.156 42.6016 128.039 42.6094 127.914 42.625C127.773 42.6719 127.695 42.6875 127.68 42.6719C127.68 42.6562 127.664 42.6484 127.633 42.6484C127.414 42.6953 127.219 42.7344 127.047 42.7656C126.875 42.7969 126.711 42.8281 126.555 42.8594C126.414 42.8906 126.281 42.9141 126.156 42.9297C126.047 42.9453 125.93 42.9688 125.805 43C125.773 43.0156 125.734 43.0312 125.688 43.0469C125.641 43.0781 125.602 43.1016 125.57 43.1172C125.461 43.1484 125.352 43.1562 125.242 43.1406C125.148 43.125 125.047 43.1328 124.938 43.1641C125.031 42.9766 125.094 42.8672 125.125 42.8359C125.156 42.8047 125.188 42.7734 125.219 42.7422C125.312 42.5859 125.383 42.4766 125.43 42.4141C125.492 42.3516 125.555 42.3047 125.617 42.2734C125.633 42.1484 125.695 42.0312 125.805 41.9219C125.867 41.8438 125.922 41.75 125.969 41.6406C126.031 41.5312 126.086 41.4219 126.133 41.3125C126.227 41.1406 126.281 41 126.297 40.8906C126.328 40.7812 126.344 40.6719 126.344 40.5625C126.359 40.4375 126.359 40.3203 126.344 40.2109C126.328 40.0859 126.32 39.9609 126.32 39.8359C126.336 39.7422 126.352 39.6484 126.367 39.5547C126.383 39.4453 126.398 39.3438 126.414 39.25C126.43 39.125 126.438 39 126.438 38.875C126.438 38.75 126.438 38.6328 126.438 38.5234C126.438 38.4453 126.43 38.3828 126.414 38.3359C126.398 38.2734 126.391 38.2031 126.391 38.125C126.391 37.9531 126.375 37.8281 126.344 37.75C126.312 37.6719 126.25 37.6172 126.156 37.5859C126.078 37.3984 126.039 37.2812 126.039 37.2344C126.039 37.1875 126.062 37.125 126.109 37.0469C126.234 36.8438 126.32 36.7188 126.367 36.6719C126.414 36.625 126.453 36.5625 126.484 36.4844C126.484 36.375 126.492 36.2734 126.508 36.1797C126.523 36.0859 126.547 35.9922 126.578 35.8984L126.602 35.6172C126.602 35.5391 126.602 35.4688 126.602 35.4062C126.617 35.3281 126.625 35.25 126.625 35.1719C126.625 35.0938 126.625 35.0156 126.625 34.9375C126.641 34.8438 126.641 34.75 126.625 34.6562C126.609 34.6094 126.586 34.5547 126.555 34.4922C126.539 34.4297 126.516 34.3672 126.484 34.3047C126.438 34.0703 126.352 33.8906 126.227 33.7656C126.086 33.5938 125.914 33.4297 125.711 33.2734C125.664 33.2422 125.609 33.2109 125.547 33.1797C125.5 33.1484 125.453 33.1172 125.406 33.0859C125.328 33.0547 125.266 33.0234 125.219 32.9922C125.172 32.9453 125.133 32.9141 125.102 32.8984C125.039 32.8672 124.977 32.8594 124.914 32.875C124.867 32.875 124.812 32.8594 124.75 32.8281C124.562 32.75 124.445 32.7109 124.398 32.7109C124.352 32.6953 124.32 32.6641 124.305 32.6172C124.227 32.6172 124.156 32.6016 124.094 32.5703C124.031 32.5234 123.969 32.4766 123.906 32.4297C123.719 32.3203 123.641 32.2188 123.672 32.125C123.703 32.0312 123.82 31.9922 124.023 32.0078C124.227 32.0234 124.398 32.0156 124.539 31.9844C124.68 31.9531 124.75 31.9453 124.75 31.9609C124.766 31.9609 124.781 31.9609 124.797 31.9609C124.891 31.9609 124.945 31.9609 124.961 31.9609C124.992 31.9453 125.023 31.9375 125.055 31.9375C125.102 31.9375 125.148 31.9297 125.195 31.9141C125.258 31.8984 125.328 31.8906 125.406 31.8906C125.484 31.875 125.547 31.8672 125.594 31.8672C125.656 31.8516 125.711 31.8359 125.758 31.8203C125.914 31.8359 126 31.8359 126.016 31.8203C126.047 31.8047 126.078 31.7969 126.109 31.7969C126.281 31.8125 126.414 31.8203 126.508 31.8203C126.602 31.8047 126.688 31.7969 126.766 31.7969C126.938 31.7969 127.125 31.7891 127.328 31.7734C127.547 31.7422 127.766 31.7344 127.984 31.75ZM131.734 35.4531C131.672 35.4531 131.586 35.4531 131.477 35.4531C131.383 35.4375 131.297 35.4219 131.219 35.4062C130.938 35.3594 130.711 35.3281 130.539 35.3125C130.383 35.2969 130.25 35.2891 130.141 35.2891C129.969 35.2891 129.828 35.2812 129.719 35.2656C129.625 35.25 129.57 35.1953 129.555 35.1016C129.539 34.9766 129.586 34.8984 129.695 34.8672C129.82 34.8359 129.945 34.8047 130.07 34.7734C130.148 34.7578 130.203 34.7422 130.234 34.7266C130.281 34.7109 130.328 34.7188 130.375 34.75C130.609 34.7656 130.75 34.7578 130.797 34.7266C130.859 34.6953 130.953 34.6875 131.078 34.7031C131.203 34.6875 131.281 34.6719 131.312 34.6562C131.359 34.6406 131.414 34.6328 131.477 34.6328C131.586 34.6484 131.648 34.6562 131.664 34.6562C131.68 34.6406 131.719 34.625 131.781 34.6094C131.812 34.375 131.828 34.1719 131.828 34C131.828 33.8125 131.836 33.625 131.852 33.4375C131.852 33.2969 131.852 33.1719 131.852 33.0625C131.867 32.9375 131.891 32.7969 131.922 32.6406C131.953 32.5156 131.977 32.4297 131.992 32.3828C131.992 32.2266 131.992 32.1406 131.992 32.125C131.977 32.0625 131.969 31.9688 131.969 31.8438C131.969 31.7188 131.977 31.6094 131.992 31.5156C131.992 31.3438 132.023 31.1562 132.086 30.9531C132.117 30.8594 132.133 30.7734 132.133 30.6953C132.148 30.6016 132.172 30.4922 132.203 30.3672C132.234 30.2422 132.273 30.125 132.32 30.0156C132.367 29.8906 132.398 29.7578 132.414 29.6172C132.445 29.5859 132.477 29.5391 132.508 29.4766C132.539 29.4141 132.57 29.3516 132.602 29.2891C132.664 29.1953 132.711 29.1172 132.742 29.0547C132.773 29.0078 132.812 28.9609 132.859 28.9141C132.922 28.8672 132.977 28.8125 133.023 28.75C133.086 28.6562 133.133 28.6016 133.164 28.5859C133.195 28.5547 133.227 28.5156 133.258 28.4688C133.367 28.375 133.422 28.3047 133.422 28.2578C133.562 28.1172 133.641 28.0469 133.656 28.0469C133.688 28.0469 133.719 28.0391 133.75 28.0234C133.922 27.8984 134.047 27.8047 134.125 27.7422C134.219 27.6797 134.312 27.6094 134.406 27.5312C134.516 27.4531 134.641 27.3828 134.781 27.3203C134.938 27.2578 135.07 27.1797 135.18 27.0859C135.289 27.0547 135.367 27.0156 135.414 26.9688C135.492 26.9375 135.562 26.9141 135.625 26.8984C135.703 26.8672 135.781 26.8359 135.859 26.8047C135.891 26.7734 135.922 26.75 135.953 26.7344C136 26.7188 136.047 26.6875 136.094 26.6406C136.156 26.625 136.219 26.6172 136.281 26.6172C136.344 26.6172 136.406 26.6094 136.469 26.5938C136.531 26.5312 136.586 26.5078 136.633 26.5234C136.68 26.5234 136.719 26.4922 136.75 26.4297C136.859 26.4453 136.961 26.4453 137.055 26.4297C137.148 26.3984 137.234 26.3672 137.312 26.3359C137.438 26.3047 137.594 26.3203 137.781 26.3828C137.969 26.4297 138.141 26.5 138.297 26.5938C138.469 26.7188 138.562 26.7969 138.578 26.8281C138.734 26.9844 138.828 27.0859 138.859 27.1328C138.906 27.1797 138.945 27.2266 138.977 27.2734C139.008 27.3047 139.031 27.3438 139.047 27.3906C139.078 27.4219 139.109 27.4531 139.141 27.4844C139.25 27.7031 139.312 27.8594 139.328 27.9531C139.359 28.0469 139.391 28.1328 139.422 28.2109C139.453 28.2891 139.484 28.375 139.516 28.4688C139.562 28.5625 139.594 28.6484 139.609 28.7266L139.633 29.1484C139.602 29.1797 139.594 29.2656 139.609 29.4062C139.625 29.5469 139.633 29.6484 139.633 29.7109C139.617 29.7891 139.602 29.875 139.586 29.9688C139.57 30.0469 139.547 30.1328 139.516 30.2266C139.5 30.3047 139.492 30.3984 139.492 30.5078C139.492 30.6016 139.484 30.6875 139.469 30.7656C139.375 31.0156 139.305 31.2031 139.258 31.3281C139.211 31.4531 139.164 31.5781 139.117 31.7031C139.023 31.8906 138.977 31.9844 138.977 31.9844C138.914 32.0938 138.875 32.1562 138.859 32.1719C138.844 32.1719 138.828 32.1875 138.812 32.2188C138.703 32.4062 138.641 32.5 138.625 32.5C138.625 32.5 138.609 32.5234 138.578 32.5703C138.484 32.6953 138.375 32.7969 138.25 32.875C138.188 32.9062 138.117 32.9453 138.039 32.9922C137.977 33.0391 137.906 33.0781 137.828 33.1094C137.656 33.2031 137.492 33.2891 137.336 33.3672C137.18 33.4453 136.969 33.4453 136.703 33.3672C136.578 33.3359 136.453 33.2969 136.328 33.25C136.219 33.2031 136.102 33.1484 135.977 33.0859C135.914 33.0391 135.859 33.0156 135.812 33.0156C135.766 33 135.727 32.9766 135.695 32.9453C135.586 32.8359 135.523 32.7891 135.508 32.8047C135.508 32.8047 135.5 32.7969 135.484 32.7812C135.453 32.7344 135.398 32.6875 135.32 32.6406C135.258 32.5781 135.211 32.5078 135.18 32.4297C135.133 32.3672 135.086 32.2969 135.039 32.2188C134.992 32.1406 134.953 32.0703 134.922 32.0078C134.891 31.9453 134.859 31.8594 134.828 31.75C134.812 31.625 134.805 31.5 134.805 31.375C134.82 31.3125 134.844 31.2344 134.875 31.1406C134.922 31.0469 134.961 30.9453 134.992 30.8359C135.102 30.6484 135.172 30.5312 135.203 30.4844C135.344 30.2969 135.43 30.1797 135.461 30.1328C135.492 30.0859 135.562 30.0312 135.672 29.9688L135.953 29.8281C136.031 29.7656 136.078 29.7266 136.094 29.7109C136.125 29.6953 136.172 29.6797 136.234 29.6641C136.312 29.6328 136.383 29.625 136.445 29.6406C136.508 29.6562 136.594 29.6719 136.703 29.6875C136.75 29.7344 136.812 29.7812 136.891 29.8281C136.969 29.875 137.047 29.9375 137.125 30.0156C137.203 30.0781 137.273 30.1484 137.336 30.2266C137.414 30.2891 137.461 30.3516 137.477 30.4141C137.492 30.4766 137.492 30.5312 137.477 30.5781C137.461 30.625 137.445 30.6797 137.43 30.7422C137.414 30.7891 137.406 30.8438 137.406 30.9062C137.406 30.9531 137.391 30.9922 137.359 31.0234C137.281 31.1016 137.211 31.1562 137.148 31.1875C137.102 31.2031 137.062 31.2344 137.031 31.2812C136.844 31.25 136.703 31.2031 136.609 31.1406C136.531 31.0781 136.539 30.9531 136.633 30.7656C136.711 30.6562 136.758 30.5469 136.773 30.4375C136.789 30.3125 136.758 30.1953 136.68 30.0859C136.508 30.0547 136.383 30.0781 136.305 30.1562C136.227 30.2344 136.125 30.2969 136 30.3438C135.938 30.4844 135.875 30.6016 135.812 30.6953C135.781 30.7578 135.742 30.8203 135.695 30.8828C135.664 30.9297 135.641 30.9844 135.625 31.0469C135.625 31.125 135.641 31.2344 135.672 31.375C135.703 31.5 135.727 31.6094 135.742 31.7031C135.758 31.8438 135.773 31.9219 135.789 31.9375C135.805 31.9531 135.82 31.9766 135.836 32.0078C135.945 32.1172 136.039 32.2031 136.117 32.2656C136.195 32.3281 136.273 32.375 136.352 32.4062C136.383 32.4219 136.469 32.4297 136.609 32.4297C136.766 32.4922 136.867 32.5156 136.914 32.5C136.977 32.4844 137.039 32.4922 137.102 32.5234C137.352 32.5234 137.516 32.4922 137.594 32.4297C137.688 32.3672 137.766 32.3047 137.828 32.2422C137.922 32.0859 137.992 31.9609 138.039 31.8672C138.086 31.7578 138.117 31.6719 138.133 31.6094C138.148 31.5625 138.156 31.5156 138.156 31.4688C138.172 31.4062 138.188 31.3516 138.203 31.3047C138.266 31.0859 138.305 30.9531 138.32 30.9062C138.352 30.8438 138.375 30.7734 138.391 30.6953C138.406 30.5703 138.406 30.4531 138.391 30.3438C138.391 30.2344 138.398 30.1172 138.414 29.9922C138.414 29.9141 138.422 29.8438 138.438 29.7812C138.453 29.7031 138.461 29.625 138.461 29.5469C138.461 29.4688 138.461 29.3984 138.461 29.3359C138.461 29.2578 138.453 29.1797 138.438 29.1016C138.438 29.0391 138.438 28.9766 138.438 28.9141C138.438 28.8516 138.43 28.7969 138.414 28.75C138.383 28.6094 138.336 28.4844 138.273 28.375C138.227 28.2656 138.195 28.1484 138.18 28.0234C138.055 27.9297 137.953 27.8672 137.875 27.8359C137.812 27.8047 137.75 27.7891 137.688 27.7891C137.625 27.7891 137.562 27.7812 137.5 27.7656C137.422 27.7344 137.352 27.6953 137.289 27.6484C137.227 27.6016 137.156 27.5703 137.078 27.5547C136.938 27.5547 136.836 27.5625 136.773 27.5781C136.633 27.625 136.531 27.6562 136.469 27.6719C136.422 27.6875 136.359 27.7031 136.281 27.7188C136.016 27.8281 135.844 27.9219 135.766 28C135.688 28.0781 135.609 28.1484 135.531 28.2109C135.391 28.3203 135.281 28.4062 135.203 28.4688C135.125 28.5156 135.055 28.5781 134.992 28.6562C134.852 28.8438 134.789 28.9375 134.805 28.9375C134.758 29.0312 134.695 29.1172 134.617 29.1953C134.555 29.2891 134.5 29.3984 134.453 29.5234C134.375 29.6484 134.32 29.7188 134.289 29.7344C134.273 29.7344 134.258 29.7422 134.242 29.7578C134.164 29.9453 134.117 30.0703 134.102 30.1328C134.086 30.1953 134.062 30.2422 134.031 30.2734C133.984 30.3828 133.945 30.5156 133.914 30.6719C133.883 30.8125 133.844 30.9531 133.797 31.0938C133.766 31.2344 133.727 31.3906 133.68 31.5625C133.648 31.6406 133.625 31.7109 133.609 31.7734C133.609 31.8203 133.594 31.8828 133.562 31.9609C133.578 31.9922 133.57 32.0703 133.539 32.1953C133.508 32.3047 133.477 32.3828 133.445 32.4297C133.414 32.5859 133.391 32.6875 133.375 32.7344C133.328 32.8594 133.281 32.9766 133.234 33.0859C133.188 33.1953 133.148 33.3203 133.117 33.4609C133.055 33.6797 133 33.875 132.953 34.0469C132.922 34.2031 132.891 34.375 132.859 34.5625C132.891 34.6094 132.938 34.6328 133 34.6328C133.078 34.6172 133.141 34.6094 133.188 34.6094C133.266 34.625 133.367 34.6484 133.492 34.6797C133.711 34.6953 133.938 34.6953 134.172 34.6797C134.422 34.6641 134.672 34.6719 134.922 34.7031C135.094 34.7188 135.18 34.7344 135.18 34.75C135.195 34.7656 135.211 34.7734 135.227 34.7734L135.742 34.8203C135.805 34.8359 135.883 34.8438 135.977 34.8438C136.086 34.8281 136.164 34.8203 136.211 34.8203C136.289 34.8203 136.367 34.8125 136.445 34.7969C136.523 34.7812 136.602 34.7734 136.68 34.7734C136.727 34.7891 136.773 34.8047 136.82 34.8203C136.867 34.8359 136.914 34.8438 136.961 34.8438C137.039 34.8438 137.102 34.8359 137.148 34.8203C137.211 34.8047 137.273 34.8047 137.336 34.8203C137.43 34.8203 137.5 34.8359 137.547 34.8672C137.609 34.8828 137.703 34.8828 137.828 34.8672C137.875 34.8672 137.945 34.8594 138.039 34.8438C138.133 34.8281 138.18 34.875 138.18 34.9844C138.18 35.0625 138.141 35.1016 138.062 35.1016C137.984 35.1016 137.891 35.1172 137.781 35.1484C137.703 35.1797 137.625 35.2031 137.547 35.2188C137.469 35.2188 137.398 35.2266 137.336 35.2422C137.008 35.2734 136.758 35.3047 136.586 35.3359C136.414 35.3672 136.172 35.3906 135.859 35.4062C135.656 35.4219 135.508 35.4297 135.414 35.4297C135.32 35.4297 135.211 35.4297 135.086 35.4297C134.945 35.4453 134.867 35.4531 134.852 35.4531C134.836 35.4375 134.812 35.4297 134.781 35.4297C134.453 35.4609 134.125 35.4766 133.797 35.4766C133.484 35.4766 133.172 35.5156 132.859 35.5938C132.828 35.6719 132.82 35.75 132.836 35.8281C132.867 35.9062 132.875 35.9922 132.859 36.0859C132.859 36.1641 132.852 36.2266 132.836 36.2734C132.836 36.3203 132.852 36.3828 132.883 36.4609C132.961 36.7578 133.008 36.9844 133.023 37.1406C133.055 37.2812 133.086 37.4375 133.117 37.6094C133.117 37.6875 133.125 37.7578 133.141 37.8203C133.156 37.8828 133.164 37.9453 133.164 38.0078C133.195 38.1641 133.211 38.3281 133.211 38.5C133.211 38.6562 133.227 38.8047 133.258 38.9453C133.32 39.1953 133.367 39.4141 133.398 39.6016C133.414 39.8047 133.445 39.9062 133.492 39.9062C133.492 40.0312 133.5 40.1094 133.516 40.1406C133.531 40.1719 133.547 40.2031 133.562 40.2344C133.594 40.2969 133.609 40.3672 133.609 40.4453C133.625 40.5078 133.648 40.5781 133.68 40.6562C133.711 40.7812 133.758 40.9062 133.82 41.0312C133.883 41.1562 133.93 41.2812 133.961 41.4062C134.023 41.625 134.102 41.8359 134.195 42.0391C134.227 42.1172 134.258 42.2109 134.289 42.3203C134.32 42.4141 134.352 42.5156 134.383 42.625C134.43 42.7969 134.438 42.8984 134.406 42.9297C134.375 42.9609 134.367 42.9922 134.383 43.0234C134.227 42.9922 134.055 42.9922 133.867 43.0234C133.68 43.0547 133.492 43.0703 133.305 43.0703C133.227 43.0547 133.148 43.0391 133.07 43.0234C133.008 43.0078 132.938 43 132.859 43C132.781 43 132.703 43.0078 132.625 43.0234C132.562 43.0391 132.492 43.0547 132.414 43.0703C132.258 43.0703 132.078 43.0547 131.875 43.0234C131.688 43.0078 131.508 43.0078 131.336 43.0234C131.086 43.1016 130.922 43.1406 130.844 43.1406C130.781 43.1562 130.719 43.2031 130.656 43.2812C130.625 43.3281 130.578 43.3438 130.516 43.3281C130.453 43.3125 130.406 43.2891 130.375 43.2578C130.406 43.0547 130.422 42.9531 130.422 42.9531C130.5 42.9062 130.547 42.8672 130.562 42.8359C130.578 42.7891 130.602 42.75 130.633 42.7188C130.742 42.5312 130.852 42.3594 130.961 42.2031C131.039 42.125 131.117 42.0547 131.195 41.9922C131.289 41.9141 131.352 41.8359 131.383 41.7578C131.477 41.5547 131.547 41.4141 131.594 41.3359C131.641 41.2422 131.688 41.1328 131.734 41.0078C131.844 40.7422 131.906 40.4609 131.922 40.1641C131.938 39.8516 131.961 39.5859 131.992 39.3672C132.023 39.1172 132.031 38.9375 132.016 38.8281C132.016 38.7188 132.008 38.6016 131.992 38.4766C131.977 38.3984 131.961 38.3203 131.945 38.2422C131.945 38.1641 131.938 38.0859 131.922 38.0078C131.906 37.9297 131.883 37.8594 131.852 37.7969C131.82 37.7188 131.797 37.6406 131.781 37.5625C131.75 37.4375 131.742 37.3125 131.758 37.1875C131.773 37.0625 131.781 36.9375 131.781 36.8125C131.781 36.7031 131.766 36.5938 131.734 36.4844C131.719 36.375 131.719 36.2656 131.734 36.1562C131.734 36.0469 131.742 35.9531 131.758 35.875C131.773 35.7812 131.766 35.6797 131.734 35.5703V35.4531ZM140.898 28.1406C140.945 28.1094 141.023 28.1094 141.133 28.1406C141.242 28.1562 141.336 28.1719 141.414 28.1875C141.508 28.2188 141.602 28.2422 141.695 28.2578C141.805 28.2578 141.898 28.2734 141.977 28.3047C142.039 28.3359 142.109 28.4062 142.188 28.5156C142.219 28.5469 142.25 28.5781 142.281 28.6094C142.328 28.6406 142.359 28.6719 142.375 28.7031C142.438 28.8594 142.484 28.9766 142.516 29.0547C142.562 29.1328 142.594 29.2109 142.609 29.2891C142.516 29.5703 142.422 29.7422 142.328 29.8047C142.172 29.9453 142.062 30.0625 142 30.1562C141.953 30.25 141.867 30.3125 141.742 30.3438C141.695 30.3594 141.609 30.3672 141.484 30.3672C141.312 30.4141 141.203 30.4375 141.156 30.4375C141.109 30.4219 141.062 30.4219 141.016 30.4375C140.781 30.4531 140.617 30.4375 140.523 30.3906C140.445 30.3281 140.367 30.2812 140.289 30.25C140.242 30.1562 140.195 30.0625 140.148 29.9688C140.117 29.8594 140.086 29.7422 140.055 29.6172C140.039 29.5234 140.031 29.4531 140.031 29.4062C140.031 29.3594 140.031 29.2812 140.031 29.1719C140.062 28.9688 140.117 28.8281 140.195 28.75C140.289 28.6719 140.359 28.5938 140.406 28.5156C140.5 28.4062 140.547 28.3438 140.547 28.3281C140.562 28.3125 140.586 28.2969 140.617 28.2812C140.648 28.25 140.695 28.2266 140.758 28.2109C140.82 28.1953 140.867 28.1719 140.898 28.1406ZM142.398 31.75C142.414 31.8281 142.406 31.8906 142.375 31.9375C142.359 31.9844 142.352 32.0469 142.352 32.125C142.352 32.2344 142.359 32.3438 142.375 32.4531C142.406 32.5625 142.414 32.6719 142.398 32.7812C142.398 32.8594 142.391 32.9375 142.375 33.0156C142.375 33.0781 142.367 33.1484 142.352 33.2266C142.32 33.5234 142.297 33.8594 142.281 34.2344C142.281 34.5938 142.266 34.9453 142.234 35.2891C142.219 35.4609 142.195 35.6328 142.164 35.8047C142.133 35.9609 142.109 36.125 142.094 36.2969C142.094 36.4688 142.102 36.625 142.117 36.7656C142.133 36.9062 142.141 37.0547 142.141 37.2109C142.125 37.3203 142.109 37.4375 142.094 37.5625C142.094 37.6719 142.078 37.7891 142.047 37.9141C142.016 38.0859 142.008 38.2812 142.023 38.5C142.039 38.7188 142.055 38.9219 142.07 39.1094C142.086 39.2969 142.102 39.4844 142.117 39.6719C142.133 39.8594 142.156 40.0391 142.188 40.2109C142.219 40.3203 142.258 40.4297 142.305 40.5391C142.367 40.6484 142.422 40.75 142.469 40.8438C142.531 41.0156 142.57 41.1094 142.586 41.125C142.602 41.125 142.617 41.1328 142.633 41.1484C142.695 41.2734 142.758 41.3672 142.82 41.4297C142.852 41.4766 142.883 41.5234 142.914 41.5703C142.961 41.6172 143 41.6562 143.031 41.6875C143.078 41.7656 143.141 41.8281 143.219 41.875C143.297 41.9219 143.375 41.9844 143.453 42.0625C143.578 42.2031 143.656 42.2891 143.688 42.3203C143.734 42.3359 143.75 42.3672 143.734 42.4141C143.656 42.4297 143.586 42.4453 143.523 42.4609C143.461 42.4609 143.391 42.4688 143.312 42.4844C143.172 42.5156 143.07 42.5469 143.008 42.5781C142.898 42.5938 142.789 42.6016 142.68 42.6016C142.57 42.6016 142.453 42.6094 142.328 42.625C142.188 42.6719 142.109 42.6875 142.094 42.6719C142.094 42.6562 142.078 42.6484 142.047 42.6484C141.828 42.6953 141.633 42.7344 141.461 42.7656C141.289 42.7969 141.125 42.8281 140.969 42.8594C140.828 42.8906 140.695 42.9141 140.57 42.9297C140.461 42.9453 140.344 42.9688 140.219 43C140.188 43.0156 140.148 43.0312 140.102 43.0469C140.055 43.0781 140.016 43.1016 139.984 43.1172C139.875 43.1484 139.766 43.1562 139.656 43.1406C139.562 43.125 139.461 43.1328 139.352 43.1641C139.445 42.9766 139.508 42.8672 139.539 42.8359C139.57 42.8047 139.602 42.7734 139.633 42.7422C139.727 42.5859 139.797 42.4766 139.844 42.4141C139.906 42.3516 139.969 42.3047 140.031 42.2734C140.047 42.1484 140.109 42.0312 140.219 41.9219C140.281 41.8438 140.336 41.75 140.383 41.6406C140.445 41.5312 140.5 41.4219 140.547 41.3125C140.641 41.1406 140.695 41 140.711 40.8906C140.742 40.7812 140.758 40.6719 140.758 40.5625C140.773 40.4375 140.773 40.3203 140.758 40.2109C140.742 40.0859 140.734 39.9609 140.734 39.8359C140.75 39.7422 140.766 39.6484 140.781 39.5547C140.797 39.4453 140.812 39.3438 140.828 39.25C140.844 39.125 140.852 39 140.852 38.875C140.852 38.75 140.852 38.6328 140.852 38.5234C140.852 38.4453 140.844 38.3828 140.828 38.3359C140.812 38.2734 140.805 38.2031 140.805 38.125C140.805 37.9531 140.789 37.8281 140.758 37.75C140.727 37.6719 140.664 37.6172 140.57 37.5859C140.492 37.3984 140.453 37.2812 140.453 37.2344C140.453 37.1875 140.477 37.125 140.523 37.0469C140.648 36.8438 140.734 36.7188 140.781 36.6719C140.828 36.625 140.867 36.5625 140.898 36.4844C140.898 36.375 140.906 36.2734 140.922 36.1797C140.938 36.0859 140.961 35.9922 140.992 35.8984L141.016 35.6172C141.016 35.5391 141.016 35.4688 141.016 35.4062C141.031 35.3281 141.039 35.25 141.039 35.1719C141.039 35.0938 141.039 35.0156 141.039 34.9375C141.055 34.8438 141.055 34.75 141.039 34.6562C141.023 34.6094 141 34.5547 140.969 34.4922C140.953 34.4297 140.93 34.3672 140.898 34.3047C140.852 34.0703 140.766 33.8906 140.641 33.7656C140.5 33.5938 140.328 33.4297 140.125 33.2734C140.078 33.2422 140.023 33.2109 139.961 33.1797C139.914 33.1484 139.867 33.1172 139.82 33.0859C139.742 33.0547 139.68 33.0234 139.633 32.9922C139.586 32.9453 139.547 32.9141 139.516 32.8984C139.453 32.8672 139.391 32.8594 139.328 32.875C139.281 32.875 139.227 32.8594 139.164 32.8281C138.977 32.75 138.859 32.7109 138.812 32.7109C138.766 32.6953 138.734 32.6641 138.719 32.6172C138.641 32.6172 138.57 32.6016 138.508 32.5703C138.445 32.5234 138.383 32.4766 138.32 32.4297C138.133 32.3203 138.055 32.2188 138.086 32.125C138.117 32.0312 138.234 31.9922 138.438 32.0078C138.641 32.0234 138.812 32.0156 138.953 31.9844C139.094 31.9531 139.164 31.9453 139.164 31.9609C139.18 31.9609 139.195 31.9609 139.211 31.9609C139.305 31.9609 139.359 31.9609 139.375 31.9609C139.406 31.9453 139.438 31.9375 139.469 31.9375C139.516 31.9375 139.562 31.9297 139.609 31.9141C139.672 31.8984 139.742 31.8906 139.82 31.8906C139.898 31.875 139.961 31.8672 140.008 31.8672C140.07 31.8516 140.125 31.8359 140.172 31.8203C140.328 31.8359 140.414 31.8359 140.43 31.8203C140.461 31.8047 140.492 31.7969 140.523 31.7969C140.695 31.8125 140.828 31.8203 140.922 31.8203C141.016 31.8047 141.102 31.7969 141.18 31.7969C141.352 31.7969 141.539 31.7891 141.742 31.7734C141.961 31.7422 142.18 31.7344 142.398 31.75ZM154.797 30.0859C154.922 30.0859 154.969 30.125 154.938 30.2031C154.922 30.2812 154.914 30.3438 154.914 30.3906C154.883 30.5938 154.844 30.8047 154.797 31.0234C154.766 31.2266 154.727 31.4375 154.68 31.6562C154.617 31.8906 154.578 32.0625 154.562 32.1719C154.547 32.2656 154.531 32.3594 154.516 32.4531C154.469 32.6094 154.43 32.7578 154.398 32.8984C154.383 33.0234 154.359 33.1484 154.328 33.2734C154.25 33.6016 154.164 33.9219 154.07 34.2344C153.977 34.5312 153.875 34.8359 153.766 35.1484L153.648 35.4062C153.633 35.5625 153.609 35.6719 153.578 35.7344C153.562 35.7812 153.539 35.8359 153.508 35.8984C153.492 35.9297 153.477 35.9844 153.461 36.0625C153.461 36.1406 153.414 36.1797 153.32 36.1797C153.258 36.1328 153.227 36.0781 153.227 36.0156C153.227 35.9531 153.211 35.8828 153.18 35.8047C153.102 35.6641 153.047 35.5547 153.016 35.4766C153 35.3828 152.977 35.2969 152.945 35.2188C152.914 35.0938 152.875 34.9688 152.828 34.8438C152.797 34.7188 152.75 34.5859 152.688 34.4453C152.656 34.3672 152.633 34.3125 152.617 34.2812C152.602 34.2344 152.578 34.1641 152.547 34.0703C152.516 33.9297 152.484 33.8438 152.453 33.8125C152.438 33.7656 152.422 33.7188 152.406 33.6719C152.391 33.625 152.383 33.5781 152.383 33.5312C152.383 33.4688 152.375 33.4141 152.359 33.3672C152.344 33.3203 152.328 33.2734 152.312 33.2266C152.297 33.1797 152.289 33.1328 152.289 33.0859C152.242 33.0391 152.211 32.9844 152.195 32.9219C152.18 32.8594 152.156 32.7969 152.125 32.7344C152.047 32.6094 151.984 32.5234 151.938 32.4766C151.891 32.4141 151.852 32.3438 151.82 32.2656C151.492 32.0938 151.148 31.9609 150.789 31.8672C150.68 31.8359 150.578 31.8125 150.484 31.7969C150.391 31.7812 150.273 31.7812 150.133 31.7969C150.008 31.8281 149.867 31.8516 149.711 31.8672C149.555 31.8672 149.414 31.9062 149.289 31.9844C149.18 32.0625 149.117 32.1016 149.102 32.1016C149.086 32.1016 149.062 32.1094 149.031 32.125C148.906 32.2031 148.82 32.2578 148.773 32.2891C148.727 32.3047 148.68 32.3281 148.633 32.3594C148.602 32.3906 148.562 32.4219 148.516 32.4531C148.484 32.4844 148.445 32.5156 148.398 32.5469C148.32 32.6406 148.234 32.7344 148.141 32.8281C148.062 32.9062 147.984 33 147.906 33.1094C147.875 33.1562 147.836 33.2109 147.789 33.2734C147.742 33.3203 147.703 33.375 147.672 33.4375C147.562 33.625 147.5 33.7344 147.484 33.7656C147.391 33.9375 147.336 34.0469 147.32 34.0938C147.305 34.1406 147.281 34.1953 147.25 34.2578C147.219 34.3047 147.195 34.3594 147.18 34.4219C147.18 34.4688 147.164 34.5312 147.133 34.6094C147.008 34.8594 146.922 35.0703 146.875 35.2422C146.828 35.4141 146.773 35.5938 146.711 35.7812C146.664 35.9219 146.617 36.0625 146.57 36.2031C146.523 36.3438 146.484 36.5 146.453 36.6719C146.422 37.0312 146.422 37.3906 146.453 37.75C146.484 37.8438 146.516 37.9453 146.547 38.0547C146.594 38.1484 146.633 38.25 146.664 38.3594C146.695 38.4688 146.719 38.5781 146.734 38.6875C146.75 38.7969 146.773 38.9062 146.805 39.0156C146.852 39.1406 146.875 39.2422 146.875 39.3203C146.953 39.4297 146.984 39.5 146.969 39.5312C146.969 39.5469 146.977 39.5703 146.992 39.6016C147.086 39.7578 147.141 39.8828 147.156 39.9766C147.188 40.0703 147.227 40.1562 147.273 40.2344C147.32 40.3125 147.391 40.4062 147.484 40.5156C147.516 40.5469 147.539 40.5859 147.555 40.6328C147.57 40.6797 147.594 40.7188 147.625 40.75C147.656 40.7969 147.688 40.8438 147.719 40.8906C147.766 40.9219 147.805 40.9609 147.836 41.0078C147.867 41.0391 147.883 41.0781 147.883 41.125C147.898 41.1562 147.922 41.1953 147.953 41.2422C148.016 41.3047 148.062 41.3594 148.094 41.4062C148.141 41.4531 148.188 41.5 148.234 41.5469C148.297 41.5938 148.359 41.6406 148.422 41.6875C148.484 41.7188 148.578 41.75 148.703 41.7812L149.008 41.875C149.086 41.8906 149.18 41.8984 149.289 41.8984C149.398 41.8828 149.516 41.8828 149.641 41.8984C149.75 41.9141 149.852 41.9297 149.945 41.9453C150.039 41.9453 150.141 41.9453 150.25 41.9453C150.375 41.9453 150.484 41.9453 150.578 41.9453C150.672 41.9453 150.773 41.9375 150.883 41.9219C150.992 41.9062 151.094 41.9062 151.188 41.9219C151.297 41.9219 151.398 41.9141 151.492 41.8984C151.648 41.8359 151.75 41.8125 151.797 41.8281C151.844 41.8281 151.898 41.8125 151.961 41.7812C152.023 41.75 152.07 41.7266 152.102 41.7109C152.148 41.6953 152.203 41.6719 152.266 41.6406C152.328 41.6094 152.383 41.5859 152.43 41.5703C152.492 41.5391 152.555 41.5 152.617 41.4531C152.727 41.3594 152.82 41.25 152.898 41.125C152.977 41 153.07 40.8984 153.18 40.8203C153.211 40.7109 153.258 40.6094 153.32 40.5156C153.383 40.4219 153.445 40.3359 153.508 40.2578C153.555 40.1328 153.594 40.0547 153.625 40.0234C153.656 39.9922 153.688 39.9453 153.719 39.8828C153.766 39.8203 153.789 39.7578 153.789 39.6953C153.883 39.6797 153.93 39.6328 153.93 39.5547C153.945 39.4609 153.992 39.3984 154.07 39.3672C154.148 39.3672 154.195 39.3984 154.211 39.4609C154.242 39.5234 154.273 39.5781 154.305 39.625C154.398 39.75 154.445 39.8516 154.445 39.9297C154.445 39.9922 154.43 40.0703 154.398 40.1641C154.367 40.2422 154.336 40.3125 154.305 40.375C154.273 40.4688 154.234 40.5625 154.188 40.6562C154.125 40.7656 154.086 40.8438 154.07 40.8906C154.07 40.9219 154.055 40.9531 154.023 40.9844C153.945 41.0938 153.867 41.2031 153.789 41.3125C153.711 41.4062 153.625 41.5156 153.531 41.6406C153.422 41.7812 153.328 41.8672 153.25 41.8984C153.219 41.9297 153.18 41.9688 153.133 42.0156C153.102 42.0625 153.062 42.1016 153.016 42.1328C152.703 42.2891 152.438 42.3906 152.219 42.4375C152.047 42.4688 151.945 42.4922 151.914 42.5078C151.898 42.5234 151.875 42.5391 151.844 42.5547C151.781 42.5703 151.719 42.5859 151.656 42.6016C151.594 42.6016 151.523 42.6094 151.445 42.625C151.383 42.6562 151.32 42.6797 151.258 42.6953C151.195 42.6953 151.133 42.7031 151.07 42.7188C150.898 42.75 150.703 42.7578 150.484 42.7422C150.281 42.7266 150.055 42.7344 149.805 42.7656C149.648 42.7969 149.508 42.8125 149.383 42.8125C149.258 42.8125 149.117 42.8125 148.961 42.8125C148.742 42.7812 148.555 42.7578 148.398 42.7422C148.258 42.7109 148.102 42.6641 147.93 42.6016C147.758 42.4766 147.648 42.3906 147.602 42.3438C147.57 42.3125 147.531 42.2969 147.484 42.2969C147.438 42.2812 147.398 42.2578 147.367 42.2266C147.336 42.1953 147.297 42.1562 147.25 42.1094C147.203 42.0625 147.156 42.0234 147.109 41.9922L146.875 41.6875C146.781 41.5781 146.688 41.4375 146.594 41.2656C146.453 41.0781 146.375 40.9609 146.359 40.9141C146.359 40.8516 146.344 40.7891 146.312 40.7266C146.281 40.6953 146.25 40.6562 146.219 40.6094C146.203 40.5625 146.18 40.5078 146.148 40.4453C146.117 40.3984 146.094 40.3516 146.078 40.3047C146.062 40.2422 146.039 40.1875 146.008 40.1406C145.945 40 145.906 39.9219 145.891 39.9062C145.812 39.7188 145.758 39.5938 145.727 39.5312C145.695 39.4688 145.664 39.3984 145.633 39.3203C145.57 39.1328 145.539 39.0391 145.539 39.0391C145.508 38.9141 145.477 38.8203 145.445 38.7578C145.43 38.7109 145.406 38.6641 145.375 38.6172C145.359 38.5703 145.344 38.5234 145.328 38.4766C145.312 38.4141 145.305 38.3594 145.305 38.3125C145.305 38.2656 145.297 38.2109 145.281 38.1484C145.234 38.0234 145.203 37.9531 145.188 37.9375C145.188 37.9219 145.188 37.8984 145.188 37.8672C145.172 37.8203 145.148 37.7812 145.117 37.75C145.102 37.7031 145.086 37.6562 145.07 37.6094C145.055 37.5781 145.055 37.5391 145.07 37.4922C145.086 37.4297 145.086 37.375 145.07 37.3281C144.992 37.0156 144.93 36.7578 144.883 36.5547C144.852 36.3516 144.828 36.1562 144.812 35.9688C144.812 35.7188 144.82 35.4844 144.836 35.2656C144.867 35.0469 144.93 34.8516 145.023 34.6797C145.117 34.4453 145.172 34.2891 145.188 34.2109C145.219 34.1172 145.25 34.0312 145.281 33.9531C145.312 33.8906 145.352 33.8281 145.398 33.7656C145.445 33.6875 145.492 33.6094 145.539 33.5312C145.727 33.1875 145.898 32.9297 146.055 32.7578C146.227 32.5859 146.383 32.3828 146.523 32.1484C146.57 32.1172 146.617 32.0859 146.664 32.0547C146.711 32.0234 146.766 31.9922 146.828 31.9609C147.016 31.8203 147.133 31.7344 147.18 31.7031C147.242 31.6562 147.305 31.6172 147.367 31.5859C147.445 31.5547 147.516 31.5312 147.578 31.5156C147.641 31.5 147.711 31.4766 147.789 31.4453C147.852 31.4141 147.906 31.3906 147.953 31.375C148.016 31.3438 148.078 31.3203 148.141 31.3047C148.297 31.2578 148.445 31.2344 148.586 31.2344C148.742 31.2188 148.883 31.1953 149.008 31.1641C149.086 31.1328 149.172 31.0938 149.266 31.0469C149.359 31 149.461 30.9688 149.57 30.9531C149.773 30.9219 149.992 30.9297 150.227 30.9766C150.461 31.0234 150.656 31.0781 150.812 31.1406C150.969 31.1875 151.148 31.2578 151.352 31.3516C151.508 31.3984 151.602 31.4531 151.633 31.5156C151.773 31.5938 151.859 31.6484 151.891 31.6797C151.922 31.6953 151.953 31.7188 151.984 31.75C152.172 31.8125 152.312 31.8672 152.406 31.9141C152.516 31.9609 152.609 32.0078 152.688 32.0547C152.844 32.1641 152.938 32.2266 152.969 32.2422C153 32.2422 153.031 32.25 153.062 32.2656C153.266 32.2969 153.43 32.2422 153.555 32.1016C153.68 31.9609 153.781 31.8359 153.859 31.7266C153.891 31.6641 153.922 31.6016 153.953 31.5391C154 31.4609 154.039 31.3906 154.07 31.3281C154.195 31.1875 154.266 31.1016 154.281 31.0703C154.297 31.0391 154.312 31.0078 154.328 30.9766C154.406 30.7734 154.477 30.6562 154.539 30.625C154.555 30.6094 154.57 30.5703 154.586 30.5078C154.602 30.4453 154.625 30.3984 154.656 30.3672C154.688 30.2422 154.734 30.1484 154.797 30.0859Z" fill="white"/>
</svg>
